<?xml version="1.0" encoding="UTF-8"?>
<svg xmlns="http://www.w3.org/2000/svg" version="1.1" width="67" height="67" viewBox="0 0 67 67"><rect x="0" y="0" width="67" height="67" fill="#ffffff"/><g transform="scale(2.31)"><g transform="translate(0,0)"><path fill-rule="evenodd" d="M9 0L9 1L8 1L8 2L9 2L9 3L8 3L8 4L10 4L10 7L11 7L11 4L12 4L12 8L6 8L6 9L5 9L5 8L0 8L0 9L4 9L4 11L3 11L3 10L1 10L1 11L0 11L0 12L1 12L1 13L0 13L0 14L1 14L1 15L0 15L0 16L1 16L1 17L0 17L0 21L1 21L1 18L2 18L2 17L4 17L4 19L3 19L3 20L2 20L2 21L4 21L4 19L5 19L5 20L6 20L6 21L7 21L7 20L6 20L6 19L9 19L9 20L8 20L8 23L10 23L10 22L12 22L12 23L13 23L13 22L12 22L12 21L9 21L9 20L13 20L13 21L14 21L14 23L15 23L15 24L8 24L8 29L15 29L15 27L16 27L16 28L17 28L17 29L18 29L18 28L17 28L17 27L19 27L19 26L20 26L20 25L23 25L23 26L22 26L22 27L20 27L20 28L19 28L19 29L20 29L20 28L21 28L21 29L27 29L27 28L28 28L28 26L29 26L29 25L28 25L28 24L26 24L26 23L27 23L27 22L29 22L29 20L28 20L28 19L27 19L27 16L28 16L28 15L27 15L27 12L28 12L28 11L27 11L27 12L25 12L25 9L26 9L26 8L25 8L25 9L24 9L24 8L23 8L23 9L22 9L22 8L20 8L20 7L21 7L21 5L20 5L20 3L21 3L21 2L18 2L18 3L17 3L17 2L16 2L16 1L21 1L21 0L16 0L16 1L14 1L14 3L12 3L12 2L13 2L13 1L11 1L11 2L10 2L10 0ZM10 3L10 4L11 4L11 3ZM16 3L16 4L15 4L15 5L14 5L14 4L13 4L13 5L14 5L14 6L13 6L13 8L12 8L12 9L13 9L13 8L14 8L14 10L16 10L16 11L15 11L15 12L18 12L18 13L17 13L17 14L16 14L16 13L13 13L13 12L14 12L14 11L13 11L13 10L11 10L11 9L10 9L10 11L11 11L11 12L10 12L10 13L8 13L8 12L9 12L9 9L8 9L8 11L6 11L6 10L7 10L7 9L6 9L6 10L5 10L5 11L4 11L4 13L5 13L5 14L4 14L4 15L6 15L6 16L7 16L7 17L5 17L5 16L4 16L4 17L5 17L5 18L8 18L8 17L10 17L10 16L9 16L9 14L10 14L10 13L13 13L13 14L11 14L11 15L12 15L12 16L15 16L15 15L14 15L14 14L16 14L16 15L17 15L17 16L18 16L18 17L21 17L21 18L17 18L17 20L16 20L16 19L15 19L15 22L17 22L17 20L18 20L18 19L19 19L19 22L18 22L18 23L17 23L17 24L15 24L15 25L12 25L12 26L11 26L11 25L10 25L10 26L9 26L9 28L10 28L10 27L11 27L11 28L12 28L12 27L13 27L13 28L14 28L14 27L15 27L15 26L16 26L16 25L17 25L17 26L18 26L18 25L20 25L20 24L18 24L18 23L19 23L19 22L20 22L20 19L22 19L22 20L23 20L23 18L24 18L24 19L25 19L25 21L26 21L26 20L27 20L27 19L25 19L25 18L24 18L24 17L26 17L26 16L27 16L27 15L26 15L26 13L25 13L25 12L24 12L24 13L25 13L25 14L23 14L23 15L24 15L24 16L22 16L22 14L21 14L21 16L20 16L20 14L19 14L19 15L18 15L18 13L20 13L20 12L21 12L21 13L23 13L23 12L21 12L21 11L22 11L22 10L19 10L19 11L17 11L17 10L18 10L18 9L20 9L20 8L19 8L19 7L20 7L20 5L18 5L18 6L17 6L17 7L16 7L16 6L15 6L15 5L16 5L16 4L17 4L17 3ZM18 3L18 4L19 4L19 3ZM8 5L8 7L9 7L9 5ZM14 6L14 7L15 7L15 9L16 9L16 10L17 10L17 9L18 9L18 8L17 8L17 9L16 9L16 7L15 7L15 6ZM18 6L18 7L19 7L19 6ZM27 8L27 9L28 9L28 10L29 10L29 9L28 9L28 8ZM5 11L5 13L7 13L7 14L6 14L6 15L7 15L7 16L8 16L8 13L7 13L7 12L6 12L6 11ZM12 11L12 12L13 12L13 11ZM19 11L19 12L20 12L20 11ZM1 13L1 14L3 14L3 13ZM28 13L28 14L29 14L29 13ZM2 15L2 16L3 16L3 15ZM13 17L13 18L9 18L9 19L13 19L13 20L14 20L14 18L16 18L16 17ZM22 17L22 18L23 18L23 17ZM28 17L28 18L29 18L29 17ZM21 21L21 24L24 24L24 21ZM22 22L22 23L23 23L23 22ZM17 24L17 25L18 25L18 24ZM24 25L24 26L25 26L25 25ZM26 25L26 26L28 26L28 25ZM22 27L22 28L23 28L23 27ZM24 27L24 28L25 28L25 27ZM26 27L26 28L27 28L27 27ZM0 0L0 7L7 7L7 0ZM1 1L1 6L6 6L6 1ZM2 2L2 5L5 5L5 2ZM22 0L22 7L29 7L29 0ZM23 1L23 6L28 6L28 1ZM24 2L24 5L27 5L27 2ZM0 22L0 29L7 29L7 22ZM1 23L1 28L6 28L6 23ZM2 24L2 27L5 27L5 24Z" fill="#000000"/></g></g></svg>
