<svg xmlns="http://www.w3.org/2000/svg" width="78" height="78" viewBox="0 0 78 78">
  <g id="account" transform="translate(-558 -290)">
    <circle id="Ellipse_16" data-name="Ellipse 16" cx="39" cy="39" r="39" transform="translate(558 290)" fill="#fff" opacity="0.52"/>
    <circle id="Ellipse_15" data-name="Ellipse 15" cx="29" cy="29" r="29" transform="translate(568 300)" fill="#fff"/>
    <g id="account-2" data-name="account" transform="translate(581 290.6)">
      <g id="Group_18" data-name="Group 18" transform="translate(0 24.4)">
        <g id="Group_17" data-name="Group 17" transform="translate(0 0)">
          <path id="Path_70" data-name="Path 70" d="M25.983,24.4H1.97A1.972,1.972,0,0,0,0,26.37V46.38a1.972,1.972,0,0,0,1.97,1.97H17.7a.469.469,0,0,0,0-.938H15.946V44.379a1.964,1.964,0,0,0-1.212-1.818l-2.463-1.026a.53.53,0,0,1-.327-.491v-.732a3.482,3.482,0,0,0,1-2.436v-2a3.253,3.253,0,0,0-3.47-2.97A3.253,3.253,0,0,0,6,35.875v2a3.483,3.483,0,0,0,1,2.436v.732a.53.53,0,0,1-.327.491L4.214,42.561A1.964,1.964,0,0,0,3,44.379v3.033H1.97A1.033,1.033,0,0,1,.938,46.381V30.34H27.015v7.786a.469.469,0,1,0,.938,0V26.37A1.972,1.972,0,0,0,25.983,24.4ZM3.939,44.379a1.029,1.029,0,0,1,.635-.953L7.037,42.4a1.465,1.465,0,0,0,.9-1.356v-.1a.469.469,0,0,0,.265-.873,2.543,2.543,0,0,1-1.266-2.194v-2a2.327,2.327,0,0,1,2.533-2.033,2.327,2.327,0,0,1,2.533,2.033v2A2.543,2.543,0,0,1,10.74,40.07a.469.469,0,0,0,.235.875l.031,0v.1a1.465,1.465,0,0,0,.9,1.356l2.463,1.026a1.029,1.029,0,0,1,.635.953v3.033H3.939ZM27.015,29.4H.938V26.37A1.033,1.033,0,0,1,1.97,25.338H25.983a1.033,1.033,0,0,1,1.032,1.032Z" transform="translate(0 -24.4)" fill="#85a6f8"/>
        </g>
      </g>
      <g id="Group_20" data-name="Group 20" transform="translate(2.004 26.901)">
        <g id="Group_19" data-name="Group 19">
          <path id="Path_71" data-name="Path 71" d="M32.525,64.418h0a.469.469,0,1,0,.474.469A.467.467,0,0,0,32.52,64.418Z" transform="translate(-32.054 -64.418)" fill="#85a6f8"/>
        </g>
      </g>
      <g id="Group_22" data-name="Group 22" transform="translate(5 26.901)">
        <g id="Group_21" data-name="Group 21">
          <path id="Path_72" data-name="Path 72" d="M80.466,64.418h0a.469.469,0,1,0,.474.469A.467.467,0,0,0,80.461,64.418Z" transform="translate(-79.995 -64.418)" fill="#85a6f8"/>
        </g>
      </g>
      <g id="Group_24" data-name="Group 24" transform="translate(3.499 26.901)">
        <g id="Group_23" data-name="Group 23">
          <path id="Path_73" data-name="Path 73" d="M56.455,64.418h0a.469.469,0,1,0,.474.469A.467.467,0,0,0,56.45,64.418Z" transform="translate(-55.984 -64.418)" fill="#85a6f8"/>
        </g>
      </g>
      <g id="Group_26" data-name="Group 26" transform="translate(7.004 26.901)">
        <g id="Group_25" data-name="Group 25">
          <path id="Path_74" data-name="Path 74" d="M130.528,64.418h-18.01a.469.469,0,1,0,0,.938h18.01a.469.469,0,1,0,0-.938Z" transform="translate(-112.049 -64.418)" fill="#85a6f8"/>
        </g>
      </g>
      <g id="Group_28" data-name="Group 28" transform="translate(17.558 38.908)">
        <g id="Group_27" data-name="Group 27" transform="translate(0 0)">
          <path id="Path_75" data-name="Path 75" d="M295.034,258.876l-6.754-2.349a.468.468,0,0,0-.308,0l-4.857,1.689a.469.469,0,0,0,.308.886l4.7-1.636,6.262,2.178a14.039,14.039,0,0,1-6.262,10.277,13.829,13.829,0,0,1-5.4-6.7,13.128,13.128,0,0,1-.883-3.916.469.469,0,0,0-.937.02,13.78,13.78,0,0,0,.93,4.194,14.761,14.761,0,0,0,6.044,7.353.469.469,0,0,0,.5,0,14.761,14.761,0,0,0,6.044-7.353,13.772,13.772,0,0,0,.93-4.194A.468.468,0,0,0,295.034,258.876Z" transform="translate(-280.903 -256.501)" fill="#85a6f8"/>
        </g>
      </g>
      <g id="Group_30" data-name="Group 30" transform="translate(21.743 43.79)">
        <g id="Group_29" data-name="Group 29">
          <path id="Path_76" data-name="Path 76" d="M353.934,334.739a.469.469,0,0,0-.663,0l-2.9,2.9-1.724-1.724a.469.469,0,1,0-.663.663l2.055,2.055a.469.469,0,0,0,.663,0l3.23-3.23A.469.469,0,0,0,353.934,334.739Z" transform="translate(-347.848 -334.601)" fill="#85a6f8"/>
        </g>
      </g>
      <g id="Group_32" data-name="Group 32" transform="translate(15.008 32.404)">
        <g id="Group_31" data-name="Group 31">
          <path id="Path_77" data-name="Path 77" d="M249.078,152.456h-8a.97.97,0,0,0-.969.969v1.5a.97.97,0,0,0,.969.969h8a.97.97,0,0,0,.969-.969v-1.5A.97.97,0,0,0,249.078,152.456Zm.031,2.47a.031.031,0,0,1-.031.031h-8a.031.031,0,0,1-.031-.031v-1.5a.031.031,0,0,1,.031-.031h8a.031.031,0,0,1,.031.031Z" transform="translate(-240.105 -152.456)" fill="#85a6f8"/>
        </g>
      </g>
      <g id="Group_34" data-name="Group 34" transform="translate(15.508 36.907)">
        <g id="Group_33" data-name="Group 33" transform="translate(0 0)">
          <path id="Path_78" data-name="Path 78" d="M254.58,224.487h-6a.469.469,0,0,0,0,.938h6a.469.469,0,0,0,0-.938Z" transform="translate(-248.108 -224.487)" fill="#85a6f8"/>
        </g>
      </g>
      <g id="Group_36" data-name="Group 36" transform="translate(15.508 38.908)">
        <g id="Group_35" data-name="Group 35">
          <path id="Path_79" data-name="Path 79" d="M252.079,256.5h-3.5a.469.469,0,1,0,0,.938h3.5a.469.469,0,0,0,0-.938Z" transform="translate(-248.108 -256.502)" fill="#85a6f8"/>
        </g>
      </g>
    </g>
  </g>
</svg>
