<svg xmlns="http://www.w3.org/2000/svg" width="78" height="78" viewBox="0 0 78 78">
  <g id="appointment" transform="translate(-982 -290)">
    <circle id="Ellipse_21" data-name="Ellipse 21" cx="39" cy="39" r="39" transform="translate(982 290)" fill="#fff" opacity="0.52"/>
    <circle id="Ellipse_22" data-name="Ellipse 22" cx="29" cy="29" r="29" transform="translate(992 300)" fill="#fff"/>
    <g id="appointment-2" data-name="appointment" transform="translate(1005 293.214)">
      <g id="Group_44" data-name="Group 44" transform="translate(9.403 22.785)">
        <g id="Group_43" data-name="Group 43">
          <path id="Path_83" data-name="Path 83" d="M151.2,52.2h-8.569a.529.529,0,1,0,0,1.059H151.2a.529.529,0,0,0,0-1.059Z" transform="translate(-142.102 -52.201)" fill="#898bc8"/>
        </g>
      </g>
      <g id="Group_46" data-name="Group 46" transform="translate(20.579 20.701)">
        <g id="Group_45" data-name="Group 45" transform="translate(0 0)">
          <path id="Path_84" data-name="Path 84" d="M311.531,20.7a.531.531,0,0,0-.529.529v4.123a.529.529,0,1,0,1.059,0V21.23A.531.531,0,0,0,311.531,20.7Z" transform="translate(-311.002 -20.701)" fill="#898bc8"/>
        </g>
      </g>
      <g id="Group_48" data-name="Group 48" transform="translate(6.882 20.701)">
        <g id="Group_47" data-name="Group 47" transform="translate(0 0)">
          <path id="Path_85" data-name="Path 85" d="M104.531,20.7a.531.531,0,0,0-.529.529v4.123a.529.529,0,1,0,1.059,0V21.23A.531.531,0,0,0,104.531,20.7Z" transform="translate(-104.002 -20.701)" fill="#898bc8"/>
        </g>
      </g>
      <g id="Group_50" data-name="Group 50" transform="translate(3.414 29.27)">
        <g id="Group_49" data-name="Group 49">
          <path id="Path_86" data-name="Path 86" d="M72.757,150.2H52.131a.529.529,0,1,0,0,1.059H72.751a.529.529,0,1,0,.007-1.059Z" transform="translate(-51.602 -150.201)" fill="#898bc8"/>
        </g>
      </g>
      <g id="Group_52" data-name="Group 52" transform="translate(3.414 33.439)">
        <g id="Group_51" data-name="Group 51" transform="translate(0 0)">
          <path id="Path_87" data-name="Path 87" d="M67.94,213.2H52.131a.529.529,0,1,0,0,1.059H67.94a.529.529,0,1,0,0-1.059Z" transform="translate(-51.602 -213.201)" fill="#898bc8"/>
        </g>
      </g>
      <g id="Group_54" data-name="Group 54" transform="translate(3.414 37.542)">
        <g id="Group_53" data-name="Group 53" transform="translate(0 0)">
          <path id="Path_88" data-name="Path 88" d="M61.065,275.2H52.131a.529.529,0,1,0,0,1.059h8.933a.529.529,0,1,0,0-1.059Z" transform="translate(-51.602 -275.201)" fill="#898bc8"/>
        </g>
      </g>
      <g id="Group_56" data-name="Group 56" transform="translate(0 22.785)">
        <g id="Group_55" data-name="Group 55" transform="translate(0 0)">
          <path id="Path_89" data-name="Path 89" d="M31.518,69.384a7.083,7.083,0,0,0-3-3V52.7a.5.5,0,0,0-.49-.5H23.193a.529.529,0,0,0,0,1.059h4.268V65.936a6.822,6.822,0,0,0-2.217-.357,7.05,7.05,0,0,0-7.054,7.047,6.75,6.75,0,0,0,.364,2.2H1.059V53.258H4.632a.529.529,0,0,0,0-1.059H.509a.493.493,0,0,0-.51.47V75.386a.489.489,0,0,0,.476.5H19a7.051,7.051,0,1,0,12.513-6.5Zm-6.267,9.257a6,6,0,1,1,6-6A6,6,0,0,1,25.251,78.641Z" transform="translate(0 -52.199)" fill="#898bc8"/>
        </g>
      </g>
      <g id="Group_58" data-name="Group 58" transform="translate(24.748 38.912)">
        <g id="Group_57" data-name="Group 57">
          <path id="Path_90" data-name="Path 90" d="M377.68,300.024h-2.627V296.43a.529.529,0,1,0-1.059,0v4.123a.5.5,0,0,0,.49.523h3.2a.531.531,0,0,0,.529-.529A.525.525,0,0,0,377.68,300.024Z" transform="translate(-373.993 -295.901)" fill="#898bc8"/>
        </g>
      </g>
    </g>
  </g>
</svg>
