<svg xmlns="http://www.w3.org/2000/svg" width="7.527" height="6.044" viewBox="0 0 7.527 6.044">
  <path id="Icon_awesome-angle-double-right" data-name="Icon awesome-angle-double-right" d="M5.508,10.09,2.94,12.658a.451.451,0,0,1-.64,0l-.427-.427a.451.451,0,0,1,0-.64l1.82-1.82L1.873,7.95a.451.451,0,0,1,0-.64L2.3,6.88a.451.451,0,0,1,.64,0L5.506,9.448A.452.452,0,0,1,5.508,10.09Zm3.625-.642L6.566,6.88a.451.451,0,0,0-.64,0L5.5,7.306a.451.451,0,0,0,0,.64l1.82,1.82L5.5,11.587a.451.451,0,0,0,0,.64l.427.427a.451.451,0,0,0,.64,0l2.568-2.568A.449.449,0,0,0,9.134,9.448Z" transform="translate(-1.74 -6.746)" fill="#55aa47"/>
</svg>
