<?xml version="1.0" encoding="utf-8"?>
<!-- Generator: Adobe Illustrator 25.2.3, SVG Export Plug-In . SVG Version: 6.00 Build 0)  -->
<svg version="1.1" id="Capa_1" xmlns="http://www.w3.org/2000/svg" xmlns:xlink="http://www.w3.org/1999/xlink" x="0px" y="0px"
	 viewBox="0 0 622 512" style="enable-background:new 0 0 622 512;" xml:space="preserve">
<style type="text/css">
	.st0{fill:#3A3A3A;}
</style>
<g>
	<path class="st0" d="M144,249h-32c-8.3,0-15,6.7-15,15c0,8.3,6.7,15,15,15h32c8.3,0,15-6.7,15-15S152.3,249,144,249z"/>
	<path class="st0" d="M144,313h-32c-8.3,0-15,6.7-15,15s6.7,15,15,15h32c8.3,0,15-6.7,15-15S152.3,313,144,313z"/>
	<path class="st0" d="M144,377h-32c-8.3,0-15,6.7-15,15s6.7,15,15,15h32c8.3,0,15-6.7,15-15S152.3,377,144,377z"/>
	<path class="st0" d="M272,249h-32c-8.3,0-15,6.7-15,15c0,8.3,6.7,15,15,15h32c8.3,0,15-6.7,15-15S280.3,249,272,249z"/>
	<path class="st0" d="M272,313h-32c-8.3,0-15,6.7-15,15s6.7,15,15,15h32c8.3,0,15-6.7,15-15S280.3,313,272,313z"/>
	<path class="st0" d="M272,377h-32c-8.3,0-15,6.7-15,15s6.7,15,15,15h32c8.3,0,15-6.7,15-15S280.3,377,272,377z"/>
	<path class="st0" d="M400,249h-32c-8.3,0-15,6.7-15,15c0,8.3,6.7,15,15,15h32c8.3,0,15-6.7,15-15S408.3,249,400,249z"/>
	<path class="st0" d="M400,313h-32c-8.3,0-15,6.7-15,15s6.7,15,15,15h32c8.3,0,15-6.7,15-15S408.3,313,400,313z"/>
	<path class="st0" d="M400,377h-32c-8.3,0-15,6.7-15,15s6.7,15,15,15h32c8.3,0,15-6.7,15-15S408.3,377,400,377z"/>
	<path class="st0" d="M467,65h-36V40c0-8.3-6.7-15-15-15s-15,6.7-15,15v25H271V40c0-8.3-6.7-15-15-15s-15,6.7-15,15v25H111V40
		c0-8.3-6.7-15-15-15s-15,6.7-15,15v25H45C20.2,65,0,85.2,0,110v332c0,24.8,20.2,45,45,45h422c24.8,0,45-20.2,45-45
		c0-9.7,0-323.6,0-332C512,85.2,491.8,65,467,65z M30,110c0-8.3,6.7-15,15-15h36v25c0,8.3,6.7,15,15,15s15-6.7,15-15V95h130v25
		c0,8.3,6.7,15,15,15c8.3,0,15-6.7,15-15V95h130v25c0,8.3,6.7,15,15,15s15-6.7,15-15V95h36c8.3,0,15,6.7,15,15v59H30V110z M467,457
		H45c-8.3,0-15-6.7-15-15V199h452v243C482,450.3,475.3,457,467,457z"/>
</g>
</svg>
