<?xml version="1.0" encoding="utf-8"?>
<!-- Generator: Adobe Illustrator 25.2.3, SVG Export Plug-In . SVG Version: 6.00 Build 0)  -->
<svg version="1.1" id="Capa_1" xmlns="http://www.w3.org/2000/svg" xmlns:xlink="http://www.w3.org/1999/xlink" x="0px" y="0px"
	 viewBox="0 0 209.3 209.3" style="enable-background:new 0 0 209.3 209.3;" xml:space="preserve">
<style type="text/css">
	.st0{fill:#55AA47;}
</style>
<g>
	<path class="st0" d="M104.6,0C46.9,0,0,46.9,0,104.6c0,57.7,46.9,104.6,104.6,104.6c57.7,0,104.6-46.9,104.6-104.6
		C209.3,46.9,162.3,0,104.6,0z M104.6,194.3c-49.4,0-89.6-40.2-89.6-89.6C15,55.2,55.2,15,104.6,15c49.4,0,89.6,40.2,89.6,89.6
		C194.3,154.1,154.1,194.3,104.6,194.3z"/>
	<path class="st0" d="M158.4,102.9h-49.2V49.1c0-4.1-3.4-7.5-7.5-7.5c-4.1,0-7.5,3.4-7.5,7.5v61.3c0,4.1,3.4,7.5,7.5,7.5h56.7
		c4.1,0,7.5-3.4,7.5-7.5S162.6,102.9,158.4,102.9z"/>
</g>
</svg>
