<svg xmlns="http://www.w3.org/2000/svg" width="32.608" height="30" viewBox="0 0 32.608 30">
  <g id="Group_16" data-name="Group 16" transform="translate(-938.946 -793)">
    <path id="Path_116" data-name="Path 116" d="M2093.333,658.25s-4.917.833-4.833-3.667.583-14.917.583-14.917.667-2.75,4.25-2.917,22.25,0,22.25,0,4.25.667,4.25,3.917-.417,15.75-.417,15.75-1.333,2.75-6.167,2.5-11.667,0-11.667,0l-8.667,5.583Z" transform="translate(-1149 157)" fill="#55aa47"/>
    <path id="Path_109" data-name="Path 109" d="M28.126-1.332H4.484A4.488,4.488,0,0,0,0,3.151V17.619A4.488,4.488,0,0,0,4.468,22.1v6.566L13.9,22.1H28.126a4.488,4.488,0,0,0,4.483-4.483V3.151a4.488,4.488,0,0,0-4.483-4.483ZM30.7,17.619a2.575,2.575,0,0,1-2.572,2.572H13.3L6.378,25.011V20.192H4.484a2.575,2.575,0,0,1-2.572-2.572V3.151A2.575,2.575,0,0,1,4.484.579H28.126A2.575,2.575,0,0,1,30.7,3.151Zm0,0" transform="translate(938.945 794.332)" fill="#55aa47"/>
    <path id="Path_110" data-name="Path 110" d="M171.293,131.172h15.153v1.911H171.293Zm0,0" transform="translate(776.38 668.579)" fill="#fff"/>
    <path id="Path_111" data-name="Path 111" d="M171.293,211.172h15.153v1.911H171.293Zm0,0" transform="translate(776.38 592.655)" fill="#fff"/>
    <path id="Path_112" data-name="Path 112" d="M171.293,291.172h15.153v1.911H171.293Zm0,0" transform="translate(776.38 516.731)" fill="#fff"/>
  </g>
</svg>
