<svg xmlns="http://www.w3.org/2000/svg" width="78" height="78" viewBox="0 0 78 78">
  <g id="comments" transform="translate(-770 -473)">
    <circle id="Ellipse_25" data-name="Ellipse 25" cx="39" cy="39" r="39" transform="translate(770 473)" fill="#fff" opacity="0.52"/>
    <circle id="Ellipse_26" data-name="Ellipse 26" cx="29" cy="29" r="29" transform="translate(780 483)" fill="#fff"/>
    <g id="chat_1_" data-name="chat (1)" transform="translate(793 494.535)">
      <path id="Path_105" data-name="Path 105" d="M9.538,24.541h6.991a.538.538,0,0,0,0-1.076H9.538a.538.538,0,1,0,0,1.076Z" transform="translate(-4.16 -9.706)" fill="#f5904e"/>
      <path id="Path_106" data-name="Path 106" d="M23.52,29.465H9.538a.538.538,0,0,0,0,1.076H23.52a.538.538,0,0,0,0-1.076Z" transform="translate(-4.16 -12.48)" fill="#f5904e"/>
      <path id="Path_107" data-name="Path 107" d="M23.52,35.465H9.538a.538.538,0,1,0,0,1.076H23.52a.538.538,0,1,0,0-1.076Z" transform="translate(-4.16 -15.253)" fill="#f5904e"/>
      <path id="Path_108" data-name="Path 108" d="M29.08,2.5,10.718,2.465A3.193,3.193,0,0,0,7.529,5.654V8.41l-4.34.009A3.193,3.193,0,0,0,0,11.608V22.977a3.192,3.192,0,0,0,3.189,3.189H6.454v5.378a.538.538,0,0,0,.936.362l5.219-5.741,8.941-.037a3.192,3.192,0,0,0,3.189-3.189v-.061l2.829,3.112a.538.538,0,0,0,.936-.362V20.251h.575a3.192,3.192,0,0,0,3.189-3.189V5.692A3.193,3.193,0,0,0,29.08,2.5ZM23.663,22.939a2.116,2.116,0,0,1-2.116,2.113l-9.18.038a.538.538,0,0,0-.4.176L7.529,30.153V25.628a.538.538,0,0,0-.538-.538h-3.8a2.116,2.116,0,0,1-2.114-2.113V11.607A2.116,2.116,0,0,1,3.19,9.494l4.877-.01h0l13.481-.028a2.116,2.116,0,0,1,2.114,2.114v11.37Zm7.529-5.878a2.115,2.115,0,0,1-2.114,2.113H27.965a.538.538,0,0,0-.538.538v4.525l-2.689-2.958V11.57a3.193,3.193,0,0,0-3.19-3.189L8.6,8.407V5.654A2.116,2.116,0,0,1,10.717,3.54l18.361.038h0a2.116,2.116,0,0,1,2.114,2.114v11.37Z" transform="translate(0)" fill="#f5904e"/>
    </g>
  </g>
</svg>
