<svg xmlns="http://www.w3.org/2000/svg" width="128" height="128" viewBox="0 0 128 128">
  <g id="Group_22" data-name="Group 22" transform="translate(-156 -540)">
    <circle id="Ellipse_32" data-name="Ellipse 32" cx="64" cy="64" r="64" transform="translate(156 540)" fill="#fff" opacity="0.27"/>
    <circle id="Ellipse_31" data-name="Ellipse 31" cx="54" cy="54" r="54" transform="translate(166 550)" fill="#fff"/>
    <g id="undraw_Access_account_re_8spm" transform="translate(183.609 561.999)">
      <path id="Path_1" data-name="Path 1" d="M234.575,664.244l-.641-2.528a32.836,32.836,0,0,0-3.483-1.25l-.081,1.175-.328-1.294c-1.468-.42-2.466-.6-2.466-.6a31.452,31.452,0,0,0,4.178,9.05l3.3.579-2.561.369a13.272,13.272,0,0,0,1.145,1.214c4.115,3.82,8.7,5.573,10.238,3.914s-.55-6.1-4.665-9.918a17.49,17.49,0,0,0-4.483-2.883Z" transform="translate(-227.576 -602.747)" fill="#9ad3e9"/>
      <path id="Path_2" data-name="Path 2" d="M316.964,608.722l.758-2.5a32.832,32.832,0,0,0-2.335-2.87l-.677.964.388-1.278c-1.04-1.117-1.8-1.792-1.8-1.792a31.463,31.463,0,0,0-1.1,9.907l2.523,2.2-2.383-1.008a13.285,13.285,0,0,0,.353,1.631c1.548,5.4,4.566,9.267,6.741,8.643s2.682-5.5,1.133-10.9a17.489,17.489,0,0,0-2.347-4.785Z" transform="translate(-303.869 -549.971)" fill="#a5e6ff"/>
      <path id="Path_22" data-name="Path 22" d="M412.25,93.756h-.4V82.8a6.34,6.34,0,0,0-6.34-6.34H382.3a6.34,6.34,0,0,0-6.34,6.34V142.9a6.34,6.34,0,0,0,6.34,6.34H405.51a6.34,6.34,0,0,0,6.34-6.34V101.553h.4Z" transform="translate(-361.462 -76.461)" fill="#e6e6e6"/>
      <path id="Path_23" data-name="Path 23" d="M421.919,93.335H418.89a2.249,2.249,0,0,1-2.083,3.1h-13.3a2.249,2.249,0,0,1-2.083-3.1H398.6a4.735,4.735,0,0,0-4.735,4.735v60.007a4.735,4.735,0,0,0,4.735,4.735h23.32a4.735,4.735,0,0,0,4.735-4.735h0V98.07a4.735,4.735,0,0,0-4.735-4.735Z" transform="translate(-377.616 -91.686)" fill="#fff"/>
      <path id="Path_6" data-name="Path 6" d="M509.178,315.9a2.388,2.388,0,0,1,1.2-2.069,2.389,2.389,0,1,0,0,4.138A2.388,2.388,0,0,1,509.178,315.9Z" transform="translate(-479.506 -290.346)" fill="#ccc"/>
      <path id="Path_7" data-name="Path 7" d="M539.916,315.9a2.388,2.388,0,0,1,1.2-2.069,2.389,2.389,0,1,0,0,4.138,2.388,2.388,0,0,1-1.2-2.069Z" transform="translate(-507.24 -290.346)" fill="#ccc"/>
      <circle id="Ellipse_1" data-name="Ellipse 1" cx="2.389" cy="2.389" r="2.389" transform="translate(33.221 23.164)" fill="#9ad3e9"/>
      <path id="Path_8" data-name="Path 8" d="M499.679,276.521H485.755a.5.5,0,0,1-.5-.5V262.1a.5.5,0,0,1,.5-.5h13.924a.5.5,0,0,1,.5.5v13.924A.5.5,0,0,1,499.679,276.521ZM485.755,261.8a.3.3,0,0,0-.3.3v13.924a.3.3,0,0,0,.3.3h13.924a.3.3,0,0,0,.3-.3V262.1a.3.3,0,0,0-.3-.3Z" transform="translate(-460.076 -243.506)" fill="#ccc"/>
      <rect id="Rectangle_1" data-name="Rectangle 1" width="21.356" height="0.2" transform="translate(21.357 43.689)" fill="#ccc"/>
      <circle id="Ellipse_2" data-name="Ellipse 2" cx="0.674" cy="0.674" r="0.674" transform="translate(21.357 41.091)" fill="#9ad3e9"/>
      <rect id="Rectangle_2" data-name="Rectangle 2" width="21.356" height="0.2" transform="translate(21.357 50.433)" fill="#ccc"/>
      <circle id="Ellipse_3" data-name="Ellipse 3" cx="0.674" cy="0.674" r="0.674" transform="translate(21.357 47.835)" fill="#9ad3e9"/>
      <path id="Path_110" data-name="Path 110" d="M594.311,641.209h-6.749a.44.44,0,0,1-.44-.44V638.4a.44.44,0,0,1,.44-.44h6.749a.44.44,0,0,1,.44.44v2.365A.44.44,0,0,1,594.311,641.209Z" transform="translate(-551.989 -583.096)" fill="#9ad3e9"/>
      <circle id="Ellipse_7" data-name="Ellipse 7" cx="0.674" cy="0.674" r="0.674" transform="translate(23.557 41.091)" fill="#9ad3e9"/>
      <circle id="Ellipse_8" data-name="Ellipse 8" cx="0.674" cy="0.674" r="0.674" transform="translate(25.757 41.091)" fill="#9ad3e9"/>
      <circle id="Ellipse_9" data-name="Ellipse 9" cx="0.674" cy="0.674" r="0.674" transform="translate(23.557 47.835)" fill="#9ad3e9"/>
      <circle id="Ellipse_10" data-name="Ellipse 10" cx="0.674" cy="0.674" r="0.674" transform="translate(25.757 47.835)" fill="#9ad3e9"/>
      <path id="Path_88" data-name="Path 88" d="M319.3,821.34H249.146c-.15,0-.272-.053-.272-.119s.122-.119.272-.119H319.3c.15,0,.272.053.272.119S319.454,821.34,319.3,821.34Z" transform="translate(-246.793 -748.339)" fill="#3f3d56"/>
      <path id="Path_111" data-name="Path 111" d="M779.238,538.6a.986.986,0,0,1,.138.077l4.383-1.871.156-1.155,1.751-.011-.1,2.648-5.785,1.53a1.033,1.033,0,0,1-.044.118,1,1,0,1,1-.5-1.337Z" transform="translate(-724.06 -490.773)" fill="#ffb8b8"/>
      <path id="Path_112" data-name="Path 112" d="M620.656,692.354h-1.2l-.57-4.621h1.768Z" transform="translate(-558.413 -620.531)" fill="#ffb8b8"/>
      <path id="Path_113" data-name="Path 113" d="M602.531,731.518h2.31v1.455h-3.765A1.455,1.455,0,0,1,602.531,731.518Z" transform="translate(-542.342 -660.037)" fill="#2f2e41"/>
      <path id="Path_114" data-name="Path 114" d="M664.23,689.1l-1.192.117-1.02-4.543,1.76-.173Z" transform="translate(-597.329 -617.611)" fill="#ffb8b8"/>
      <path id="Path_115" data-name="Path 115" d="M1.455,0h2.31V1.455H0A1.455,1.455,0,0,1,1.455,0Z" transform="translate(63.376 71.488) rotate(-5.625)" fill="#2f2e41"/>
      <circle id="Ellipse_33" data-name="Ellipse 33" cx="2.4" cy="2.4" r="2.4" transform="translate(60.176 35.179)" fill="#ffb8b8"/>
      <path id="Path_116" data-name="Path 116" d="M820.67,645.961a.437.437,0,0,1-.431-.361c-.62-3.442-2.647-14.7-2.7-15.009a.129.129,0,0,1,0-.022v-.839a.146.146,0,0,1,.027-.085l.268-.375a.144.144,0,0,1,.112-.061c1.527-.072,6.526-.281,6.767.02h0c.243.3.157,1.222.137,1.4v.019l2.246,14.364a.441.441,0,0,1-.363.5l-1.4.231a.442.442,0,0,1-.491-.3c-.434-1.386-1.889-6.05-2.393-7.855a.049.049,0,0,0-.1.014c.025,1.72.086,6.109.107,7.625l0,.163a.442.442,0,0,1-.4.443l-1.353.123Z" transform="translate(-759.893 -575.073)" fill="#2f2e41"/>
      <path id="Path_99" data-name="Path 99" d="M821.687,493.192a2.007,2.007,0,0,0-.813,1.172,11.109,11.109,0,0,0-.477,2.654l-.152,2.7-1.882,7.15c1.631,1.38,2.571,1.066,4.767-.062s2.446.376,2.446.376l.439-6.084.627-6.648a2.946,2.946,0,0,0-.475-.457,4.852,4.852,0,0,0-4.147-.879Z" transform="translate(-760.634 -452.269)" fill="#9ad3e9"/>
      <path id="Path_117" data-name="Path 117" d="M833.383,549.319a1.023,1.023,0,0,1,.147.069l4.333-2.169.072-1.175,1.788-.123.1,2.679-5.791,1.915a1.026,1.026,0,1,1-.644-1.2Z" transform="translate(-772.941 -500.047)" fill="#ffb8b8"/>
      <path id="Path_101" data-name="Path 101" d="M881.6,507.216c1.066.376,1.254,4.453,1.254,4.453-1.254-.69-2.76.439-2.76.439s-.314-1.066-.69-2.446a2.4,2.4,0,0,1,.5-2.258A1.708,1.708,0,0,1,881.6,507.216Z" transform="translate(-815.625 -465.008)" fill="#9ad3e9"/>
      <path id="Path_102" data-name="Path 102" d="M847.968,430.737c-.3-.239-.707.2-.707.2l-.239-2.153a8.548,8.548,0,0,1-2.452-.06c-.957-.239-1.106.867-1.106.867a7.677,7.677,0,0,1-.03-1.346c.06-.538.837-1.076,2.213-1.435s2.093,1.2,2.093,1.2C848.7,428.481,848.267,430.976,847.968,430.737Z" transform="translate(-783.24 -392.523)" fill="#2f2e41"/>
    </g>
  </g>
</svg>
