<svg xmlns="http://www.w3.org/2000/svg" width="8.998" height="6.074" viewBox="0 0 8.998 6.074">
  <path id="Icon_zocial-email" data-name="Icon zocial-email" d="M.072,9.6v-5q0-.009.026-.165L3.04,6.957.107,9.778A.735.735,0,0,1,.072,9.6Zm.39-5.51A.374.374,0,0,1,.61,4.068H8.532a.491.491,0,0,1,.156.026L5.738,6.619l-.39.312-.772.633L3.8,6.931l-.39-.312Zm.009,6.022L3.43,7.279l1.145.928,1.145-.928L8.68,10.116a.417.417,0,0,1-.148.026H.61a.393.393,0,0,1-.139-.026Zm5.64-3.158L9.044,4.441a.518.518,0,0,1,.026.165v5a.665.665,0,0,1-.026.174Z" transform="translate(-0.072 -4.068)" fill="#55aa47"/>
</svg>
