<svg xmlns="http://www.w3.org/2000/svg" width="38" height="38" viewBox="0 0 38 38">
  <g id="follow" transform="translate(-38 -31)">
    <rect id="Rectangle_1" data-name="Rectangle 1" width="38" height="38" rx="19" transform="translate(38 31)" fill="#55aa47"/>
    <path id="Icon_awesome-users" data-name="Icon awesome-users" d="M3.48,9.21A2.32,2.32,0,1,0,1.16,6.89,2.322,2.322,0,0,0,3.48,9.21Zm16.24,0A2.32,2.32,0,1,0,17.4,6.89,2.322,2.322,0,0,0,19.72,9.21Zm1.16,1.16H18.56a2.313,2.313,0,0,0-1.635.674,5.3,5.3,0,0,1,2.722,3.966H22.04a1.159,1.159,0,0,0,1.16-1.16V12.69A2.322,2.322,0,0,0,20.88,10.37Zm-9.28,0A4.06,4.06,0,1,0,7.54,6.31,4.058,4.058,0,0,0,11.6,10.37Zm2.784,1.16h-.3a5.605,5.605,0,0,1-4.966,0h-.3A4.177,4.177,0,0,0,4.64,15.706V16.75a1.74,1.74,0,0,0,1.74,1.74H16.82a1.74,1.74,0,0,0,1.74-1.74V15.706A4.177,4.177,0,0,0,14.384,11.53Zm-8.109-.486A2.313,2.313,0,0,0,4.64,10.37H2.32A2.322,2.322,0,0,0,0,12.69v1.16a1.159,1.159,0,0,0,1.16,1.16H3.549A5.316,5.316,0,0,1,6.275,11.044Z" transform="translate(45 39.75)" fill="#fff"/>
  </g>
</svg>
