<svg xmlns="http://www.w3.org/2000/svg" width="39.694" height="31.956" viewBox="0 0 39.694 31.956">
  <g id="Out_line" data-name="Out line" transform="translate(-16 -64.602)">
    <path id="Path_16" data-name="Path 16" d="M50.35,78.789l4.978-9.5a3.2,3.2,0,1,0-5.667-2.968l-4.978,9.5a3.179,3.179,0,0,0-.014,2.937L43.127,81.7l-2.158-1.079a.668.668,0,0,0-.878.266L36,88.057a7.338,7.338,0,0,0-.963,3.542,4,4,0,0,0-1.7-.377l-.084,0a2.672,2.672,0,0,0-2.583-2V83.888h.667a7.343,7.343,0,0,0,7.335-7.335V73.887a2,2,0,0,0-2-2H31.5a7.464,7.464,0,0,0-6.024,3.032,7.467,7.467,0,0,0-2.311-.365H18a2,2,0,0,0-2,2v2.667a7.343,7.343,0,0,0,7.335,7.335h3.334v2.751a2.672,2.672,0,0,0-1.219.7,2.668,2.668,0,0,0-3.387,1.985,2.666,2.666,0,0,0-3.311,1.9H17.334v1.334h2A.667.667,0,0,0,20,94.557a1.334,1.334,0,0,1,2.667,0H24a2.655,2.655,0,0,0-.638-1.729,1.332,1.332,0,0,1,1.305-1.605c.028,0,.056,0,.083,0A1.337,1.337,0,0,1,26,92.557h1.334a2.66,2.66,0,0,0-.7-1.8,1.327,1.327,0,0,1,1.567.12A2.659,2.659,0,0,0,28,91.89h1.334a1.333,1.333,0,0,1,2.6-.413,4.007,4.007,0,0,0-2.6,3.747h1.334a2.666,2.666,0,0,1,4.737-1.681A2.67,2.67,0,0,0,34,95.89h1.334a1.334,1.334,0,1,1,2.667,0h1.334a2.652,2.652,0,0,0-.245-1.114,2,2,0,0,1,1.823,0,2.66,2.66,0,0,0-.244,1.114H42a1.334,1.334,0,1,1,2.667,0h1.334a2.659,2.659,0,0,0-.2-1.013,1.333,1.333,0,0,1,2.2,1.013.667.667,0,0,0,.667.667h5.334V95.224H49.255a2.666,2.666,0,0,0-3.777-1.718,7.367,7.367,0,0,0,.438-.8l3.361-7.2a.668.668,0,0,0-.306-.878l-2.512-1.256,1.522-2.906A3.2,3.2,0,0,0,50.35,78.789ZM29.336,89.582a2.679,2.679,0,0,0-.332.227,2.669,2.669,0,0,0-1-.5V85.889a.667.667,0,0,0-.667-.667H26a6.008,6.008,0,0,1-6-6v-.667H18.667v.667a7.324,7.324,0,0,0,2.675,5.66,6.01,6.01,0,0,1-4.008-5.66V76.554A.668.668,0,0,1,18,75.887h5.168a6.175,6.175,0,0,1,6.168,6.168Zm-2.59-14.119A6.137,6.137,0,0,1,31.5,73.22H36.67a.668.668,0,0,1,.667.667v2.667a6.01,6.01,0,0,1-4.011,5.66A7.352,7.352,0,0,0,36,76.554v-.667H34.67v.667a6.023,6.023,0,0,1-4,5.659v-.158a7.508,7.508,0,0,0-3.924-6.592ZM47.794,85.528l-3.086,6.614a5.994,5.994,0,0,1-.715,1.164,2.659,2.659,0,0,0-2.218.427A3.321,3.321,0,0,0,40,93.223l-.09,0,2.009-3.684-1.17-.638-2.6,4.77a2.652,2.652,0,0,0-1.347-.447,4,4,0,0,0-.352-.514,6,6,0,0,1,.7-3.993l3.782-6.62,1.571.785-1.261,2.408a1.862,1.862,0,1,0,3.3,1.729l1.294-2.47Zm-4.429.874a.531.531,0,0,1-.471.284A.52.52,0,0,1,42.6,86.6a.526.526,0,0,1-.175-.685L45.6,79.861a3.173,3.173,0,0,0,.66.383,2.967,2.967,0,0,0,.278.1Zm3.417-7.383a1.866,1.866,0,0,1-.917-2.58l4.978-9.5a1.865,1.865,0,0,1,3.3,1.731l-4.978,9.5a1.874,1.874,0,0,1-2.386.848Z" fill="#303030"/>
  </g>
</svg>
