<svg xmlns="http://www.w3.org/2000/svg" width="8.998" height="9" viewBox="0 0 8.998 9">
  <path id="Icon_awesome-globe" data-name="Icon awesome-globe" d="M6.106,3.321C5.843,1.7,5.222.563,4.5.563S3.157,1.7,2.894,3.321ZM2.758,5.063a11.373,11.373,0,0,0,.06,1.161H6.18a11.373,11.373,0,0,0,.06-1.161A11.373,11.373,0,0,0,6.18,3.9H2.818A11.373,11.373,0,0,0,2.758,5.063ZM8.65,3.321A4.51,4.51,0,0,0,5.783.751,6.124,6.124,0,0,1,6.69,3.321ZM3.215.751A4.507,4.507,0,0,0,.35,3.321H2.31A6.1,6.1,0,0,1,3.215.751ZM8.844,3.9H6.763c.038.381.06.771.06,1.161s-.022.78-.06,1.161H8.842A4.461,4.461,0,0,0,9,5.063,4.539,4.539,0,0,0,8.844,3.9ZM2.177,5.063c0-.39.022-.78.06-1.161H.156a4.4,4.4,0,0,0,0,2.323H2.235C2.2,5.843,2.177,5.453,2.177,5.063ZM2.894,6.8c.263,1.62.884,2.758,1.606,2.758S5.843,8.425,6.106,6.8ZM5.785,9.374A4.514,4.514,0,0,0,8.652,6.8H6.692a6.124,6.124,0,0,1-.907,2.569ZM.35,6.8A4.51,4.51,0,0,0,3.217,9.374,6.124,6.124,0,0,1,2.31,6.8H.35Z" transform="translate(0 -0.563)" fill="#55aa47"/>
</svg>
