<svg xmlns="http://www.w3.org/2000/svg" width="14.936" height="15" viewBox="0 0 14.936 15">
  <g id="icon-web" transform="translate(-0.056)">
    <path id="Path_117" data-name="Path 117" d="M4.687,11.082l-.96,2.18a.159.159,0,0,1-.148.089H3.087a.159.159,0,0,1-.148-.089l-.456-1.04c-.044-.1-.085-.2-.123-.3-.042.107-.085.207-.129.3l-.481,1.038a.16.16,0,0,1-.147.086H1.113a.159.159,0,0,1-.149-.091l-.9-2.18a.126.126,0,0,1,.02-.128.165.165,0,0,1,.13-.059H.768a.158.158,0,0,1,.152.1L1.314,12.1c.033.093.063.182.092.266q.052-.126.112-.267L2,10.982a.16.16,0,0,1,.148-.089h.457a.16.16,0,0,1,.149.091l.46,1.09c.042.1.078.19.113.276.028-.082.061-.171.1-.268l.425-1.1A.159.159,0,0,1,4,10.892h.534a.167.167,0,0,1,.131.06A.127.127,0,0,1,4.687,11.082Zm5.147,0-.96,2.18a.159.159,0,0,1-.148.089H8.234a.159.159,0,0,1-.148-.089l-.455-1.04c-.045-.1-.085-.2-.123-.3-.042.107-.085.207-.129.3L6.9,13.265a.159.159,0,0,1-.147.086H6.259a.16.16,0,0,1-.149-.091l-.9-2.18a.126.126,0,0,1,.02-.128.168.168,0,0,1,.13-.059h.553a.158.158,0,0,1,.152.1L6.46,12.1l.093.266q.051-.126.111-.267l.486-1.115a.159.159,0,0,1,.148-.089h.457a.16.16,0,0,1,.149.091l.461,1.09c.041.1.078.19.111.276.029-.082.061-.171.1-.268L9,10.987a.16.16,0,0,1,.151-.095h.534a.165.165,0,0,1,.131.06A.126.126,0,0,1,9.834,11.082Zm5.147,0-.959,2.18a.16.16,0,0,1-.148.089h-.492a.159.159,0,0,1-.148-.089l-.455-1.04c-.045-.1-.085-.2-.123-.3-.042.107-.086.207-.129.3l-.481,1.038a.16.16,0,0,1-.147.086h-.492a.16.16,0,0,1-.15-.091l-.9-2.18a.127.127,0,0,1,.019-.128.166.166,0,0,1,.13-.059h.554a.157.157,0,0,1,.151.1l.395,1.108c.033.093.063.182.092.266q.051-.126.111-.267l.486-1.115a.16.16,0,0,1,.148-.089H12.9a.16.16,0,0,1,.149.091l.46,1.09c.042.1.079.19.113.276.028-.082.061-.171.1-.268l.426-1.1a.158.158,0,0,1,.15-.095h.534a.166.166,0,0,1,.131.06A.129.129,0,0,1,14.981,11.082Z" transform="translate(0 -4.608)" fill="#55aa47"/>
    <g id="Group_93" data-name="Group 93" transform="translate(0.363)">
      <path id="Path_118" data-name="Path 118" d="M1.812,5.192a6.372,6.372,0,0,1,.61-1.175.555.555,0,0,0,.107.021H3.613a10.774,10.774,0,0,0-.283,1.154H4.516a9.269,9.269,0,0,1,.324-1.154H10.6a9.269,9.269,0,0,1,.324,1.154h1.186a10.774,10.774,0,0,0-.283-1.154h1.085a.57.57,0,0,0,.107-.021,6.441,6.441,0,0,1,.609,1.175h1.224a7.5,7.5,0,0,0-14.266,0ZM12.063,2.885h-.685a7.234,7.234,0,0,0-.491-.876A6.359,6.359,0,0,1,12.063,2.885ZM7.721,1.154a2.941,2.941,0,0,1,2.343,1.731H5.378A2.941,2.941,0,0,1,7.721,1.154Zm-3.167.854a7.311,7.311,0,0,0-.49.876H3.379A6.389,6.389,0,0,1,4.554,2.008Z" transform="translate(-0.588)" fill="#55aa47"/>
      <path id="Path_119" data-name="Path 119" d="M13.63,17a6.408,6.408,0,0,1-.61,1.175.555.555,0,0,0-.107-.021H11.828A10.774,10.774,0,0,0,12.111,17H10.925a9.144,9.144,0,0,1-.324,1.154H4.841A9.241,9.241,0,0,1,4.516,17H3.331a10.774,10.774,0,0,0,.283,1.154H2.529a.555.555,0,0,0-.107.021A6.408,6.408,0,0,1,1.812,17H.588a7.5,7.5,0,0,0,14.266,0ZM3.379,19.308h.685a7.267,7.267,0,0,0,.49.876A6.374,6.374,0,0,1,3.379,19.308Zm4.342,1.731a2.941,2.941,0,0,1-2.343-1.731h4.686A2.94,2.94,0,0,1,7.721,21.039Zm3.166-.854a7.191,7.191,0,0,0,.491-.876h.685A6.4,6.4,0,0,1,10.887,20.184Z" transform="translate(-0.588 -7.192)" fill="#55aa47"/>
    </g>
  </g>
</svg>
