<svg xmlns="http://www.w3.org/2000/svg" xmlns:xlink="http://www.w3.org/1999/xlink" width="157.351" height="54.769" viewBox="0 0 157.351 54.769">
  <defs>
    <linearGradient id="linear-gradient" x1="0.837" y1="0.21" x2="0.079" y2="0.863" gradientUnits="objectBoundingBox">
      <stop offset="0" stop-color="#fff"/>
      <stop offset="0.99" stop-color="#231f20"/>
    </linearGradient>
    <linearGradient id="linear-gradient-2" x1="0.751" y1="0.933" x2="0.249" y2="0.067" gradientUnits="objectBoundingBox">
      <stop offset="0" stop-color="#fff"/>
      <stop offset="1" stop-color="#dfe3ea"/>
    </linearGradient>
    <linearGradient id="linear-gradient-3" x1="-0.005" y1="0.5" x2="1.002" y2="0.5" gradientUnits="objectBoundingBox">
      <stop offset="0" stop-color="#231f20"/>
      <stop offset="0.05" stop-color="#343925"/>
      <stop offset="0.14" stop-color="#4d5f2c"/>
      <stop offset="0.24" stop-color="#638032"/>
      <stop offset="0.35" stop-color="#759a37"/>
      <stop offset="0.46" stop-color="#82af3a"/>
      <stop offset="0.59" stop-color="#8cbd3d"/>
      <stop offset="0.75" stop-color="#91c53f"/>
      <stop offset="1" stop-color="#93c83f"/>
    </linearGradient>
    <linearGradient id="linear-gradient-4" x1="0" y1="0.5" x2="1" y2="0.5" xlink:href="#linear-gradient-3"/>
    <linearGradient id="linear-gradient-5" x1="0.121" y1="0.722" x2="0.775" y2="0.464" xlink:href="#linear-gradient-3"/>
    <linearGradient id="linear-gradient-6" x1="0" y1="0.501" x2="1" y2="0.501" xlink:href="#linear-gradient-3"/>
    <linearGradient id="linear-gradient-7" x1="0.002" y1="0.5" x2="1.001" y2="0.5" xlink:href="#linear-gradient-3"/>
    <linearGradient id="linear-gradient-8" x1="0" y1="0.5" x2="0.999" y2="0.5" xlink:href="#linear-gradient-3"/>
    <linearGradient id="linear-gradient-9" x1="0.121" y1="0.722" x2="0.775" y2="0.464" gradientUnits="objectBoundingBox">
      <stop offset="0" stop-color="#c3df9f"/>
      <stop offset="0.09" stop-color="#b7d987"/>
      <stop offset="0.21" stop-color="#aad36d"/>
      <stop offset="0.35" stop-color="#a0ce58"/>
      <stop offset="0.51" stop-color="#99cb4a"/>
      <stop offset="0.69" stop-color="#94c942"/>
      <stop offset="1" stop-color="#93c83f"/>
    </linearGradient>
    <linearGradient id="linear-gradient-10" x1="-0.002" y1="0.5" x2="1" y2="0.5" gradientUnits="objectBoundingBox">
      <stop offset="0" stop-color="#c3df9f"/>
      <stop offset="1" stop-color="#93c83f"/>
    </linearGradient>
    <linearGradient id="linear-gradient-11" x1="0" y1="0.501" x2="1" y2="0.501" xlink:href="#linear-gradient-10"/>
    <linearGradient id="linear-gradient-12" x1="-0.043" y1="0.35" x2="0.884" y2="0.857" gradientUnits="objectBoundingBox">
      <stop offset="0" stop-color="#c2c8d2"/>
      <stop offset="1" stop-color="#cad0d9"/>
    </linearGradient>
  </defs>
  <g id="Logo" transform="translate(-0.023)">
    <path id="Path_52" data-name="Path 52" d="M135.724,60.46H139.4v6.65c0,1.016.4,1.766,1.52,1.766s1.563-.75,1.563-1.766V60.46h3.686v6.65c0,3.484-2.381,5.266-5.333,5.266s-5.119-1.782-5.119-5.266Z" transform="translate(-82.42 -36.469)" fill="#56a946"/>
    <path id="Path_53" data-name="Path 53" d="M172.433,70.821a1.324,1.324,0,1,0-2.635,0V75.8h-3.7V66.4h3.7v1.436a3.3,3.3,0,0,1,2.885-1.5c2.167,0,3.432,1.587,3.432,4.016V75.8h-3.682Z" transform="translate(-100.745 -40.013)" fill="#56a946"/>
    <path id="Path_54" data-name="Path 54" d="M199.078,75.844a4.819,4.819,0,1,1,4.968-4.817A4.642,4.642,0,0,1,199.078,75.844Zm0-3.2c.651,0,1.214-.5,1.214-1.619s-.563-1.615-1.214-1.615-1.218.5-1.218,1.615S198.431,72.646,199.078,72.646Z" transform="translate(-117.64 -39.938)" fill="#56a946"/>
    <path id="Path_55" data-name="Path 55" d="M227.516,60.46h9.92v2.932H234.3v8.869h-3.7V63.392h-3.1Z" transform="translate(-137.781 -36.469)" fill="#231f20"/>
    <path id="Path_56" data-name="Path 56" d="M258.792,75.808h-3.7V66.4h3.7v1.734a3.909,3.909,0,0,1,3.083-1.8v3.968h-1.052c-1.333,0-2.032.4-2.032,1.667Z" transform="translate(-154.424 -40.016)" fill="#231f20"/>
    <path id="Path_57" data-name="Path 57" d="M277.331,66.21a2.786,2.786,0,0,1,2.6,1.4V66.325h3.682v9.4h-3.682v-1.27a2.786,2.786,0,0,1-2.6,1.4c-2.167,0-3.881-1.782-3.881-4.817S275.164,66.21,277.331,66.21Zm1.234,3.234c-.766,0-1.365.552-1.365,1.587s.6,1.587,1.365,1.587,1.369-.548,1.369-1.587S279.331,69.444,278.565,69.444Z" transform="translate(-165.498 -39.938)" fill="#231f20"/>
    <path id="Path_58" data-name="Path 58" d="M305.891,61.927a2.749,2.749,0,0,1,2.583,1.4V59.11h3.7V71.447h-3.7v-1.27a2.749,2.749,0,0,1-2.583,1.4c-2.167,0-3.881-1.782-3.881-4.817S303.724,61.927,305.891,61.927Zm1.234,3.234c-.766,0-1.365.552-1.365,1.587s.6,1.587,1.365,1.587,1.369-.548,1.369-1.587S307.891,65.161,307.125,65.161Z" transform="translate(-182.726 -35.655)" fill="#231f20"/>
    <path id="Path_59" data-name="Path 59" d="M335.361,75.844a4.817,4.817,0,1,1,4.8-4.9,5.7,5.7,0,0,1-.047.733h-5.952c.052.948.5,1.218,1,1.218a.9.9,0,0,0,.869-.552h3.916A4.489,4.489,0,0,1,335.361,75.844Zm-1.147-5.785h2.2a.944.944,0,0,0-1.052-.948A1.055,1.055,0,0,0,334.215,70.059Z" transform="translate(-199.947 -39.938)" fill="#231f20"/>
    <path id="Path_60" data-name="Path 60" d="M361.39,75.808H357.7V66.4h3.69v1.734a3.917,3.917,0,0,1,3.083-1.8v3.968h-1.048c-1.333,0-2.036.4-2.036,1.667Z" transform="translate(-216.318 -40.016)" fill="#231f20"/>
    <path id="Path_61" data-name="Path 61" d="M380.76,75.784c-2.718,0-4.5-1.448-4.67-3.365h3.571a.98.98,0,0,0,1.1.794c.4,0,.619-.2.619-.433,0-1.234-4.853-.1-4.853-3.571,0-1.7,1.353-3.1,4-3.1a3.9,3.9,0,0,1,4.254,3.409H381.49a.972.972,0,0,0-1.063-.794c-.369,0-.583.151-.583.433,0,1.167,4.916.083,4.916,3.7C384.76,74.518,383.26,75.784,380.76,75.784Z" transform="translate(-227.41 -39.877)" fill="#231f20"/>
    <path id="Path_62" data-name="Path 62" d="M47.417,35.843a1.023,1.023,0,0,0-.032-.1,23.534,23.534,0,0,0-19.777-16.19c-.083,0-.163-.02-.246-.024a21.634,21.634,0,0,0-2.381-.127,23.511,23.511,0,0,0-2.659.151l-.262.032A23.534,23.534,0,1,0,47.223,50.644q.317-.9.556-1.841a.771.771,0,0,1,0-.079,23.634,23.634,0,0,0-.373-12.88ZM42.084,50.164a18.61,18.61,0,0,1-1.131,2.21c-.083.143-.171.282-.258.421a.155.155,0,0,1-.024.044A18.57,18.57,0,1,1,24.6,24.368h.361a18.4,18.4,0,0,1,9.059,2.361c.226.123.448.254.667.4A18.6,18.6,0,0,1,41.9,35.32l.079.179a18.65,18.65,0,0,1,.591,13.368.063.063,0,0,1,0,.036c-.143.425-.3.845-.476,1.254Z" transform="translate(-1.43 -11.702)" fill="url(#linear-gradient)"/>
    <path id="Path_63" data-name="Path 63" d="M48.417,34.843a1.024,1.024,0,0,0-.032-.1,23.534,23.534,0,0,0-19.777-16.19c-.083,0-.163-.02-.246-.024a21.634,21.634,0,0,0-2.381-.127,23.511,23.511,0,0,0-2.659.151l-.262.032A23.534,23.534,0,1,0,48.223,49.644q.317-.9.556-1.841a.769.769,0,0,1,0-.079,23.634,23.634,0,0,0-.373-12.88ZM43.084,49.164a18.611,18.611,0,0,1-1.131,2.21c-.083.143-.171.282-.258.421a.155.155,0,0,1-.024.044A18.57,18.57,0,1,1,25.6,23.368h.361a18.4,18.4,0,0,1,9.059,2.361c.226.123.448.254.667.4A18.6,18.6,0,0,1,42.9,34.32l.079.179a18.65,18.65,0,0,1,.591,13.368.063.063,0,0,1,0,.036c-.143.425-.3.845-.476,1.254Z" transform="translate(-2.033 -11.099)" fill="url(#linear-gradient-2)"/>
    <path id="Path_64" data-name="Path 64" d="M109.177,66.491a23.586,23.586,0,0,1-.718,5.789.773.773,0,0,0,0,.079c-.186.655-.4,1.3-.635,1.932h-4.762s-.528.69-1.389,1.639l-.274.294h0a18.32,18.32,0,0,0,1.893-3.77.063.063,0,0,0,0-.036,18.7,18.7,0,0,0-.206-13.309c1.706.175,4.365.274,5.043.3A23.411,23.411,0,0,1,109.177,66.491Z" transform="translate(-61.718 -35.655)" fill="url(#linear-gradient-3)"/>
    <path id="Path_65" data-name="Path 65" d="M59.405,58.446h0c-1.552,1.667-3.968,3.936-6.408,4.781,0,0-4.059-.25-4.762-.452l5.115-2.4s.349-1.4-2.659-3.809l2.155-1.353s-1.536-3-3.242-3.674a2.175,2.175,0,0,0,1.353-.726A5.718,5.718,0,0,0,47.2,47.1a4.58,4.58,0,0,0,1.3-.754s-.794-4.46-6.349-4.512a15.547,15.547,0,0,0-4.111,1.155s-2.155-.2-2.254,0-.214,1.087.587,1.087a4.948,4.948,0,0,0,2.857-.353c1.805-.655,5.21-2.1,7.817,2.206,0,0-5.865,2.706-7.166,3.107,0,0-4.21.794-6.718-1.9s-.9-6.412.4-7.015,4.464-1.992,11.233-1.639a13.556,13.556,0,0,0-1.714-8.825h.726a18.479,18.479,0,0,1,7.988,1.8,68.909,68.909,0,0,1,6.349,7.793,4.181,4.181,0,0,0,2.956,2.1h0a18.677,18.677,0,0,1-1.7,17.114Z" transform="translate(-19.763 -17.885)" fill="url(#linear-gradient-4)"/>
    <path id="Path_66" data-name="Path 66" d="M64.831,13.69a18.479,18.479,0,0,0-7.984-1.8h-.726c-.25-.46-.528-.929-.841-1.4a11.6,11.6,0,0,1-1.587-3.329c-.956-3.539,1.135-5.8,3.988-6.932,0,0,1.119,4.964,1.393,6.841a3.727,3.727,0,0,1,.06.627S61.871,10.456,64.831,13.69Z" transform="translate(-32.8 -0.139)" fill="url(#linear-gradient-5)"/>
    <path id="Path_67" data-name="Path 67" d="M35.485,76.875a9.369,9.369,0,0,0,6.579.829s3.9-1.917,4.98-2.258,3.44.754,4.305,2.778c0,0-6.166,2.778-7.182,2.968,0,0-6.051.377-7.968-.714A2.448,2.448,0,0,1,35.485,76.875Z" transform="translate(-21.654 -45.472)" fill="url(#linear-gradient-6)"/>
    <path id="Path_68" data-name="Path 68" d="M41.938,89.125s5.158.187,6.277,0a43.169,43.169,0,0,0,5.674-2.6s1.353.056,3.234,2.678c0,0-6.127,2.924-7.329,3.3a39.709,39.709,0,0,1-5.952-.377A2.643,2.643,0,0,1,41.938,89.125Z" transform="translate(-25.827 -52.195)" fill="url(#linear-gradient-7)"/>
    <path id="Path_69" data-name="Path 69" d="M52.155,101.192a18.892,18.892,0,0,0,3.571.151c.794-.186,4.9-2.333,5.277-2.409s1.841,1.055,2.968,2.857c0,0-1.428.679-2.254,1.091s-3.571,1.766-3.908,1.805a13.655,13.655,0,0,1-4.024-.452A3.048,3.048,0,0,1,52.155,101.192Z" transform="translate(-32.012 -59.675)" fill="url(#linear-gradient-8)"/>
    <path id="Path_70" data-name="Path 70" d="M101.79,101.276l-.238.258q-.127.135-.262.274c.139-.19.27-.4.4-.587h.028Z" transform="translate(-61.652 -61.056)" fill="#bfc6cf"/>
    <path id="Path_71" data-name="Path 71" d="M109.509,66.334a23.479,23.479,0,0,1-1.294,7.71h-4.6s-.54.706-1.425,1.674l-.238.258h0c.063-.1.123-.19.183-.29v-.024c.083-.131.163-.266.242-.4.147-.242.29-.492.421-.746.067-.127.135-.254.2-.4s.179-.357.262-.54.19-.421.278-.635l.167-.4c.163-.4.31-.837.44-1.27.04-.127.079-.254.111-.4a.245.245,0,0,1,.036-.119c.04-.147.079-.294.115-.444.1-.373.179-.754.25-1.139.032-.179.063-.353.091-.532a1.7,1.7,0,0,1,.028-.2c.028-.194.056-.4.075-.587a.052.052,0,0,1,0-.024c0-.2.04-.4.056-.615v-.135a2.454,2.454,0,0,1,.028-.448v-.861A18.618,18.618,0,0,0,103.6,58.85c1.524.159,3.825.254,4.762.286A23.411,23.411,0,0,1,109.509,66.334Z" transform="translate(-62.05 -35.498)" fill="#93c83f"/>
    <path id="Path_72" data-name="Path 72" d="M101.512,101.523h0q-.127.135-.262.274c.139-.19.27-.4.4-.587h.028A1.379,1.379,0,0,1,101.512,101.523Z" transform="translate(-61.628 -61.05)" fill="#93c83f"/>
    <path id="Path_73" data-name="Path 73" d="M63.021,48.022v.861a2.411,2.411,0,0,1-.028.448v.135c0,.206-.036.4-.056.615a.052.052,0,0,0,0,.024,4.1,4.1,0,0,1-.075.587.491.491,0,0,1-.028.2c-.028.179-.06.353-.091.532-.071.4-.155.766-.25,1.139-.036.151-.075.3-.115.444a.2.2,0,0,1-.036.119c-.032.127-.071.254-.111.4-.131.433-.278.857-.44,1.27l-.167.4c-.087.214-.183.425-.278.635a81.6,81.6,0,0,1-8.222-1.428h0c-.544-.9-1.694-2.611-2.928-3.1a2.175,2.175,0,0,0,1.353-.726,5.718,5.718,0,0,0-3.758-3.71,4.58,4.58,0,0,0,1.3-.754s-.794-4.46-6.349-4.512A15.547,15.547,0,0,0,38.6,42.732s-2.155-.2-2.254,0-.2,1.1.6,1.1a4.948,4.948,0,0,0,2.857-.353c1.805-.655,5.21-2.1,7.817,2.206,0,0-5.865,2.706-7.166,3.107a9.329,9.329,0,0,1-3.968-.234h0a6.2,6.2,0,0,1-2.155-1.107h0a5.274,5.274,0,0,1-.6-.559c-2.5-2.706-.9-6.412.4-7.015s4.46-1.984,11.229-1.655A13.556,13.556,0,0,0,43.649,29.4h.726a18.479,18.479,0,0,1,7.988,1.8,68.909,68.909,0,0,1,6.349,7.793,4.181,4.181,0,0,0,2.956,2.1h0a18.618,18.618,0,0,1,1.353,6.928Z" transform="translate(-20.109 -17.734)" fill="#93c83f"/>
    <path id="Path_74" data-name="Path 74" d="M65.438,13.46a18.479,18.479,0,0,0-7.988-1.8h-.726c-.25-.46-.528-.929-.841-1.4A11.6,11.6,0,0,1,54.3,6.932c-.952-3.539,1.139-5.8,3.992-6.932,0,0,1.119,4.964,1.393,6.841a3.726,3.726,0,0,1,.06.627S62.478,10.206,65.438,13.46Z" transform="translate(-33.164)" fill="url(#linear-gradient-9)"/>
    <path id="Path_75" data-name="Path 75" d="M61.2,78s-2.349,1.059-4.365,1.917c-2.1-.7-4.071-1.46-5.92-2.254a9.106,9.106,0,0,0,1-.186s3.908-1.917,4.988-2.258S60.334,75.97,61.2,78Z" transform="translate(-31.263 -45.333)" fill="url(#linear-gradient-10)"/>
    <path id="Path_76" data-name="Path 76" d="M73.173,88.224c-1.421-.357-2.778-.75-4.123-1.167.845-.425,1.472-.758,1.472-.758S71.6,86.344,73.173,88.224Z" transform="translate(-42.205 -52.056)" fill="url(#linear-gradient-11)"/>
    <path id="Path_77" data-name="Path 77" d="M39.455,76.027A6.2,6.2,0,0,1,37.3,74.92C38,75.293,38.713,75.666,39.455,76.027Z" transform="translate(-23.053 -45.192)" fill="#56a946"/>
    <path id="Path_78" data-name="Path 78" d="M47.594,82.18a22.908,22.908,0,0,1-2.778,1.055s-6.051.4-7.968-.714a2.457,2.457,0,0,1-.714-3.611,9.317,9.317,0,0,0,5.555,1.016h0C43.523,80.719,45.5,81.481,47.594,82.18Z" transform="translate(-22.046 -47.598)" fill="#56a946"/>
    <path id="Path_79" data-name="Path 79" d="M57.737,90.1S51.61,93.025,50.4,93.4a37.776,37.776,0,0,1-5.952-.4A2.651,2.651,0,0,1,42.531,90s5.158.186,6.281,0a25.447,25.447,0,0,0,4.2-1.837c1.325.417,2.7.794,4.123,1.167C57.34,89.569,57.534,89.819,57.737,90.1Z" transform="translate(-26.185 -53.178)" fill="#56a946"/>
    <path id="Path_80" data-name="Path 80" d="M64.568,101.562s-1.428.679-2.258,1.091-3.571,1.766-3.909,1.805a13.654,13.654,0,0,1-4.024-.452,3.023,3.023,0,0,1-1.615-3.043,18.893,18.893,0,0,0,3.571.151c.794-.186,4.889-2.333,5.25-2.409S63.441,99.76,64.568,101.562Z" transform="translate(-32.378 -59.536)" fill="#56a946"/>
    <path id="Path_81" data-name="Path 81" d="M86.312,93.859c-.083.183-.171.361-.262.54s-.131.258-.2.4c-.131.254-.274.5-.421.746-.079.135-.159.27-.242.4v.024h-.028c-.131.2-.262.4-.4.587h0c-1.555,1.631-3.857,3.7-6.142,4.5,0,0-4.059-.25-4.762-.452l5.115-2.4s.349-1.4-2.659-3.809l2.155-1.353s-.119-.23-.325-.579a81.6,81.6,0,0,0,8.166,1.409Z" transform="translate(-45.106 -55.766)" fill="#56a946"/>
    <path id="Path_82" data-name="Path 82" d="M107.619,96.4h-4.365s-.54.706-1.425,1.675l-.238.258q-.127.135-.262.274c.139-.19.27-.4.4-.587h.028V98c.083-.131.163-.266.242-.4.147-.242.29-.492.421-.746.067-.127.135-.254.2-.4s.179-.357.262-.54Q105.167,96.237,107.619,96.4Z" transform="translate(-61.676 -57.859)" fill="#56a946"/>
    <path id="Path_83" data-name="Path 83" d="M48.241,69.393A23.534,23.534,0,1,1,4.954,51.14a31.939,31.939,0,0,0,3.67,3.968A18.574,18.574,0,0,0,41.71,71.575a.155.155,0,0,0,.024-.044c.087-.139.175-.278.258-.421A18.61,18.61,0,0,0,43.11,68.9v-.02C45.777,69.242,47.634,69.361,48.241,69.393Z" transform="translate(-2.059 -30.848)" fill="url(#linear-gradient-12)"/>
    <path id="Path_84" data-name="Path 84" d="M136.808,99.2v2.547h1v.226H136.53V99.2Z" transform="translate(-82.908 -59.837)"/>
    <path id="Path_85" data-name="Path 85" d="M150.888,99.448H149.7v1.036h1.052v.242H149.7v1.052h1.19v.23H149.44V99.23h1.448Z" transform="translate(-90.696 -59.855)"/>
    <path id="Path_86" data-name="Path 86" d="M162.64,99.21h1.821v.23h-.77v2.544h-.278V99.44h-.794Z" transform="translate(-98.646 -59.843)"/>
    <path id="Path_87" data-name="Path 87" d="M176.64,98.25h.29l-.048.766h-.194Z" transform="translate(-107.103 -59.264)"/>
    <path id="Path_88" data-name="Path 88" d="M187.936,101.952a.833.833,0,0,1-.936-.742h.294a.575.575,0,0,0,.643.508c.4,0,.611-.226.611-.512,0-.817-1.524-.3-1.524-1.345a.915.915,0,0,1,1.782-.067h-.3a.567.567,0,0,0-.6-.436.524.524,0,0,0-.6.5c0,.794,1.524.31,1.524,1.341a.794.794,0,0,1-.893.758Z" transform="translate(-113.352 -59.784)"/>
    <path id="Path_89" data-name="Path 89" d="M212.56,99.21h.3l.635,2.432.71-2.432h.309l.69,2.432.635-2.432h.3l-.794,2.778h-.31l-.7-2.381-.714,2.381h-.3Z" transform="translate(-128.77 -59.843)"/>
    <path id="Path_90" data-name="Path 90" d="M232.264,101.964a1.417,1.417,0,1,1,1.369-1.417,1.353,1.353,0,0,1-1.369,1.417Zm0-.242a1.19,1.19,0,1,0-1.087-1.19,1.079,1.079,0,0,0,1.087,1.19Z" transform="translate(-139.772 -59.796)"/>
    <path id="Path_91" data-name="Path 91" d="M248.733,99.21c.643,0,.944.349.944.794a.766.766,0,0,1-.683.794l.714,1.19h-.333l-.686-1.159h-.512v1.159H247.9V99.21Zm0,.234h-.556V100.6h.556c.452,0,.655-.246.655-.583s-.175-.571-.655-.571Z" transform="translate(-150.087 -59.843)"/>
    <path id="Path_92" data-name="Path 92" d="M262.778,100.726v1.282H262.5V99.23h.278v1.3l1.19-1.3h.353l-1.3,1.385L264.333,102h-.365Z" transform="translate(-158.893 -59.855)"/>
    <path id="Path_93" data-name="Path 93" d="M287.82,99.21h1.821v.23h-.77v2.544h-.278V99.44h-.774Z" transform="translate(-174.166 -59.843)"/>
    <path id="Path_94" data-name="Path 94" d="M303.134,101.964a1.417,1.417,0,1,1,1.369-1.417,1.353,1.353,0,0,1-1.369,1.417Zm0-.242a1.19,1.19,0,1,0-1.087-1.19,1.079,1.079,0,0,0,1.087,1.19Z" transform="translate(-182.52 -59.796)"/>
    <path id="Path_95" data-name="Path 95" d="M321.044,99.969h-.321a.976.976,0,0,0-.936-.587,1.167,1.167,0,0,0,0,2.329,1.028,1.028,0,0,0,1.055-1.024h-1.167v-.226h1.456v.2a1.329,1.329,0,0,1-1.345,1.3,1.417,1.417,0,1,1,0-2.833A1.282,1.282,0,0,1,321.044,99.969Z" transform="translate(-192.594 -59.793)"/>
    <path id="Path_96" data-name="Path 96" d="M336.8,99.448h-1.19v1.036h1.051v.242h-1.051v1.052h1.19v.23H335.35V99.23H336.8Z" transform="translate(-202.836 -59.855)"/>
    <path id="Path_97" data-name="Path 97" d="M348.55,99.21h1.821v.23h-.77v2.544h-.278V99.44h-.774Z" transform="translate(-210.798 -59.843)"/>
    <path id="Path_98" data-name="Path 98" d="M364.762,100.68h-1.5v1.3H363V99.2h.278v1.246h1.5V99.2h.278v2.778h-.278Z" transform="translate(-219.515 -59.837)"/>
    <path id="Path_99" data-name="Path 99" d="M379.888,99.448h-1.171v1.036h1.052v.242h-1.052v1.052h1.171v.23H378.44V99.23h1.448Z" transform="translate(-228.828 -59.855)"/>
    <path id="Path_100" data-name="Path 100" d="M393,99.21c.643,0,.944.349.944.794a.766.766,0,0,1-.682.794l.714,1.19h-.333l-.686-1.159h-.512v1.159h-.278V99.21Zm0,.234h-.555V100.6h.559c.452,0,.655-.246.655-.583s-.19-.571-.659-.571Z" transform="translate(-237.11 -59.843)"/>
  </g>
</svg>
