<svg xmlns="http://www.w3.org/2000/svg" xmlns:xlink="http://www.w3.org/1999/xlink" width="22.417" height="22" viewBox="0 0 22.417 22">
  <defs>
    <filter id="Icon_awesome-user" x="3.5" y="1.5" width="18.917" height="20.333" filterUnits="userSpaceOnUse">
      <feOffset dx="2" dy="1" input="SourceAlpha"/>
      <feGaussianBlur stdDeviation="1.5" result="blur"/>
      <feFlood flood-opacity="0.161"/>
      <feComposite operator="in" in2="blur"/>
      <feComposite in="SourceGraphic"/>
    </filter>
  </defs>
  <g id="Group_23" data-name="Group 23" transform="translate(-1081 -281)">
    <g id="Ellipse_29" data-name="Ellipse 29" transform="translate(1081 281)" fill="#f2f2f2" stroke="rgba(112,112,112,0.27)" stroke-width="0.5">
      <circle cx="11" cy="11" r="11" stroke="none"/>
      <circle cx="11" cy="11" r="10.75" fill="none"/>
    </g>
    <g transform="matrix(1, 0, 0, 1, 1081, 281)" filter="url(#Icon_awesome-user)">
      <path id="Icon_awesome-user-2" data-name="Icon awesome-user" d="M4.958,5.667A2.833,2.833,0,1,0,2.125,2.833,2.833,2.833,0,0,0,4.958,5.667Zm1.983.708h-.37a3.853,3.853,0,0,1-3.227,0h-.37A2.976,2.976,0,0,0,0,9.35v.921a1.063,1.063,0,0,0,1.063,1.063H8.854a1.063,1.063,0,0,0,1.063-1.062V9.35A2.976,2.976,0,0,0,6.942,6.375Z" transform="translate(6 5)" fill="#55aa47"/>
    </g>
    <circle id="Ellipse_30" data-name="Ellipse 30" cx="3" cy="3" r="3" transform="translate(1097 283)" fill="#55aa47"/>
  </g>
</svg>
