<svg xmlns="http://www.w3.org/2000/svg" width="37.713" height="38.349" viewBox="0 0 37.713 38.349">
  <g id="plumber" transform="translate(-9.151 -5)">
    <path id="Path_1" data-name="Path 1" d="M406.254,435.05h-1.6a.458.458,0,0,0-.4.229l-.8,1.385a.458.458,0,0,0,0,.458l.8,1.385a.458.458,0,0,0,.4.229h1.6a.458.458,0,0,0,.4-.229l.8-1.385a.458.458,0,0,0,0-.458l-.8-1.385A.458.458,0,0,0,406.254,435.05Zm-.265,2.77h-1.07l-.535-.927.535-.927h1.07l.535.927Z" transform="translate(-364.131 -397.2)" fill="#303030"/>
    <path id="Path_2" data-name="Path 2" d="M30.713,27.265A15.447,15.447,0,0,1,26.9,25.753l-.953-.523V24.8a5.2,5.2,0,0,0,1.674-3.064l.34-2.166a1.405,1.405,0,0,0,.7-2.529,9.224,9.224,0,0,0,.367-1.451h.157a1.344,1.344,0,0,0,.415-2.624,7.963,7.963,0,0,0-1.535-4.4,7.242,7.242,0,0,0-3.52-2.579l.05-.483A.458.458,0,0,0,24.134,5H20.652a.458.458,0,0,0-.456.506l.05.483a7.238,7.238,0,0,0-3.521,2.585,7.985,7.985,0,0,0-1.533,4.391,1.344,1.344,0,0,0,.414,2.624h.118a7.14,7.14,0,0,0,.34,1.109l.174.437a1.405,1.405,0,0,0,.813,2.434l.34,2.166A5.2,5.2,0,0,0,18.851,24.6v.791l-.954.479a.456.456,0,0,0-.16.081L17.644,26a16.363,16.363,0,0,1-3.571,1.27,6.4,6.4,0,0,0-4.922,6.247v9.375a.458.458,0,0,0,.458.458H35.177a.458.458,0,0,0,.458-.458V33.512a6.4,6.4,0,0,0-4.922-6.247ZM13.721,42.429H10.067V33.512a5.486,5.486,0,0,1,3.654-5.187ZM19.959,7.084a5.822,5.822,0,0,1,.9-.322.458.458,0,0,0,.338-.49l-.037-.355h2.465l-.037.355a.458.458,0,0,0,.338.49,5.857,5.857,0,0,1,.9.322V7.71a3.71,3.71,0,0,1-2.361,3.455,3.7,3.7,0,0,1-2.506-3.509Zm-2.5,2.034A6.514,6.514,0,0,1,19.042,7.6v.059a4.614,4.614,0,0,0,3.194,4.4l.095.031a.457.457,0,0,0,.291,0,4.627,4.627,0,0,0,3.121-4.374V7.6a6.5,6.5,0,0,1,1.58,1.517A7.033,7.033,0,0,1,28.672,12.9H16.114a7.058,7.058,0,0,1,1.349-3.781Zm-1.857,5.554a.428.428,0,1,1,0-.857H29.179a.428.428,0,1,1,0,.857H15.606Zm12.487.917c-.021.11-.044.219-.069.327v-.327Zm-11.108,0v.946l-.07-.175a6.22,6.22,0,0,1-.249-.771Zm1.31,6-.4-2.547a.458.458,0,0,0-.453-.387h-.253a.491.491,0,1,1,0-.981h.253a.458.458,0,0,0,.458-.458v-1.63h9.206v1.63a.458.458,0,0,0,.458.458h.241a.454.454,0,0,0,.265.085l.021,0a.49.49,0,0,1-.273.9h-.253a.458.458,0,0,0-.453.387l-.4,2.547a4.261,4.261,0,0,1-8.418,0Zm1.472,3.946v-.212c.1.061.2.12.3.174a5.169,5.169,0,0,0,4.872,0l.088-.049v1.84a3.591,3.591,0,0,1-5.261,0V25.785a.455.455,0,0,0,0-.246ZM18.477,26.6l.374-.188v1.052a.458.458,0,0,0,.109.3,4.507,4.507,0,0,0,6.877,0,.458.458,0,0,0,.109-.3V26.275l.362.2v3.479a3.916,3.916,0,1,1-7.831,0Zm7.99,15.827H19.08V38.414a9.391,9.391,0,0,0,7.387.013Zm3.681,0H27.384V37.7a.458.458,0,0,0-.671-.406,8.475,8.475,0,0,1-7.878-.015.458.458,0,0,0-.672.405v4.741H14.638V28.068a17.428,17.428,0,0,0,2.923-1.018v2.9a4.832,4.832,0,1,0,9.664,0v-3a16.066,16.066,0,0,0,2.923,1.111Zm4.57,0H31.064v-14.1a5.486,5.486,0,0,1,3.654,5.187Z" transform="translate(0)" fill="#303030"/>
    <path id="Path_3" data-name="Path 3" d="M175.206,334.525a.6.6,0,1,0-.6-.6A.6.6,0,0,0,175.206,334.525Z" transform="translate(-152.813 -303.238)" fill="#303030"/>
    <path id="Path_4" data-name="Path 4" d="M175.206,359.338a.6.6,0,1,0-.6-.6A.6.6,0,0,0,175.206,359.338Z" transform="translate(-152.813 -326.156)" fill="#303030"/>
    <path id="Path_5" data-name="Path 5" d="M380.248,145.905l-.019-.02a.458.458,0,0,0-.75.119l-2.258,2.258-2.924-.543-.543-2.924,2.336-2.336a.458.458,0,0,0,0-.648l-.02-.02a.458.458,0,0,0-.281-.132,5.064,5.064,0,0,0-3.221,9.3v12.083a3.653,3.653,0,1,0,4.546,0v-11.6a5.058,5.058,0,0,0,3.25-5.133A.458.458,0,0,0,380.248,145.905Zm-2.671,19.987a2.736,2.736,0,1,1-2.736-2.736A2.736,2.736,0,0,1,377.577,165.892Zm-4.092-3.39V151.42a5.057,5.057,0,0,0,2.713.264V162.5A3.639,3.639,0,0,0,373.485,162.5Zm4.764-12.869a4.147,4.147,0,1,1-3.6-7.026l-1.711,1.71a.458.458,0,0,0-.126.408l.645,3.47a.458.458,0,0,0,.367.367l3.47.645a.458.458,0,0,0,.408-.126l1.711-1.711a4.129,4.129,0,0,1-1.161,2.264Z" transform="translate(-333.518 -126.199)" fill="#303030"/>
    <path id="Path_6" data-name="Path 6" d="M167.258,53.864H168.9a.458.458,0,0,0,0-.917h-1.644a.458.458,0,0,0,0,.917Z" transform="translate(-145.607 -44.285)" fill="#303030"/>
    <path id="Path_7" data-name="Path 7" d="M167.258,34.017H168.9a.458.458,0,0,0,0-.917h-1.644a.458.458,0,0,0,0,.917Z" transform="translate(-145.607 -25.954)" fill="#303030"/>
  </g>
</svg>
