<svg xmlns="http://www.w3.org/2000/svg" width="19" height="15.799" viewBox="0 0 19 15.799">
  <path id="post" d="M15.043,13.406a.278.278,0,0,0-.384.086,3.747,3.747,0,0,1-3.179,1.749H4.319A3.766,3.766,0,0,1,.557,11.479V4.809a.278.278,0,1,0-.557,0v6.67A4.323,4.323,0,0,0,4.319,15.8H11.48a4.3,4.3,0,0,0,3.649-2.008.278.278,0,0,0-.086-.384ZM12.6,6.01,10.475,8.132a.278.278,0,1,0,.394.394L12.99,6.4A.278.278,0,1,0,12.6,6.01Zm6-4.637L17.627.4A1.379,1.379,0,0,0,15.68.4L14.673,1.41A4.292,4.292,0,0,0,11.48,0H4.319A4.32,4.32,0,0,0,.1,3.406a.278.278,0,0,0,.214.331.292.292,0,0,0,.059.006.278.278,0,0,0,.272-.22A3.763,3.763,0,0,1,4.319.556H11.48a3.739,3.739,0,0,1,2.8,1.248l-2.96,2.96H3.558a.278.278,0,1,0,0,.557h7.2L9.428,6.655H3.558a.278.278,0,1,0,0,.557H8.871L7.145,8.938a6.257,6.257,0,0,0-1.216,1.715L5.136,12.3a1.176,1.176,0,0,0,1.052,1.685,1.183,1.183,0,0,0,.514-.119l.8-.384h0l.847-.407a6.262,6.262,0,0,0,1.715-1.216l5.18-5.18v4.8a3.778,3.778,0,0,1-.109.9.278.278,0,1,0,.541.133,4.332,4.332,0,0,0,.125-1.034V6.119l.774-.774h0L18.6,3.32a1.379,1.379,0,0,0,0-1.948ZM6.46,13.362a.616.616,0,0,1-.823-.823l.235-.488a6.892,6.892,0,0,1,1.076,1.076Zm1.646-.792-.644.31A7.453,7.453,0,0,0,6.12,11.538l.31-.644a5.7,5.7,0,0,1,.8-1.229l2.1,2.1a5.7,5.7,0,0,1-1.229.8Zm1.636-1.182-2.13-2.13,6.24-6.241,2.13,2.13Zm6.634-6.634-2.13-2.13.687-.687,2.131,2.13ZM18.2,2.927l-.747.747-2.13-2.13L16.073.8a.822.822,0,0,1,1.16,0l.97.97a.822.822,0,0,1,0,1.16Zm-14.646.5h8.684a.278.278,0,1,0,0-.557H3.558a.278.278,0,1,0,0,.557Zm0,0" transform="translate(0 0.001)" fill="#55aa47"/>
</svg>
