<svg xmlns="http://www.w3.org/2000/svg" width="78" height="78" viewBox="0 0 78 78">
  <g id="profile" transform="translate(-770 -290)">
    <circle id="Ellipse_17" data-name="Ellipse 17" cx="39" cy="39" r="39" transform="translate(770 290)" fill="#fff" opacity="0.52"/>
    <circle id="Ellipse_18" data-name="Ellipse 18" cx="29" cy="29" r="29" transform="translate(780 300)" fill="#fff"/>
    <g id="user_4_" data-name="user (4)" transform="translate(727.712 313)">
      <g id="Group_38" data-name="Group 38" transform="translate(74.899)">
        <g id="Group_37" data-name="Group 37" transform="translate(0)">
          <path id="Path_80" data-name="Path 80" d="M175.743,23.2a3.773,3.773,0,0,0-2.385-3.264c-.021-.008-.037-.014-3.815-1.128l-.927-.627v-.234a6.482,6.482,0,0,0,3.21-5.254.092.092,0,0,1,.054-.083,2.282,2.282,0,0,0,1.344-3.381c0-.323,0-1.114,0-1.361a7.863,7.863,0,0,0-13.784-5.178.467.467,0,0,0,.7.616,6.929,6.929,0,0,1,12.146,4.562V7.9c0,1.607-.034,1.582.09,1.749a1.345,1.345,0,0,1-.8,2.076,1.021,1.021,0,0,0-.682.91,5.553,5.553,0,0,1-2.962,4.621.467.467,0,0,0-.25.414v.757a.467.467,0,0,0,.206.387,9.445,9.445,0,0,0,1.322.868c.009,0,3.587,1.057,3.837,1.133a2.91,2.91,0,0,1,1.78,2.565.467.467,0,1,0,.917-.183Z" transform="translate(-159.324)" fill="#55c89a"/>
        </g>
      </g>
      <g id="Group_40" data-name="Group 40" transform="translate(75.232 24.961)">
        <g id="Group_39" data-name="Group 39" transform="translate(0)">
          <path id="Path_81" data-name="Path 81" d="M181.952,404.792l-.77-3.868a.467.467,0,0,0-.917.183l.77,3.868a1.5,1.5,0,0,1-.26,1.177,1.41,1.41,0,0,1-1.117.406H165.137a.467.467,0,0,0,0,.935h14.521a2.293,2.293,0,0,0,1.823-.728A2.4,2.4,0,0,0,181.952,404.792Z" transform="translate(-164.67 -400.549)" fill="#55c89a"/>
        </g>
      </g>
      <g id="Group_42" data-name="Group 42" transform="translate(69.288 4.376)">
        <g id="Group_41" data-name="Group 41" transform="translate(0)">
          <path id="Path_82" data-name="Path 82" d="M78.344,83.085a5.565,5.565,0,0,1-2.933-4.424,1.39,1.39,0,0,0-.829-1.151,1.325,1.325,0,0,1-.672-2.025c.34-.46-.351-2.287.7-4.614a.467.467,0,0,0-.853-.383,9.568,9.568,0,0,0-.687,4.576,2.261,2.261,0,0,0,1.145,3.3.461.461,0,0,1,.269.379,6.5,6.5,0,0,0,3.177,5.025v.254l-.9.608c-1.591.469-3.792,1.117-3.846,1.137A3.464,3.464,0,0,0,70.656,88.4l-1.322,6.639a2.4,2.4,0,0,0,.44,1.936,2.265,2.265,0,0,0,1.853.765h1.891a.467.467,0,1,0,0-.935H71.628a1.388,1.388,0,0,1-1.131-.424,1.479,1.479,0,0,1-.246-1.16l1.322-6.639a2.554,2.554,0,0,1,1.655-1.934c2.841-.858,3.86-1.11,4-1.2l1.164-.787a.467.467,0,0,0,.206-.387V83.5A.468.468,0,0,0,78.344,83.085Z" transform="translate(-69.288 -70.213)" fill="#55c89a"/>
        </g>
      </g>
    </g>
  </g>
</svg>
