<?xml version="1.0" encoding="utf-8"?>
<!-- Generator: Adobe Illustrator 25.2.3, SVG Export Plug-In . SVG Version: 6.00 Build 0)  -->
<svg version="1.1" id="Outline" xmlns="http://www.w3.org/2000/svg" xmlns:xlink="http://www.w3.org/1999/xlink" x="0px" y="0px"
	 viewBox="0 0 512 512" style="enable-background:new 0 0 512 512;" xml:space="preserve">
<style type="text/css">
	.st0{fill:#55AA47;}
	.st1{fill:#FFFFFF;}
</style>
<polygon class="st0" points="62,48 62,27 104,22 421.9,22 440,32 445,48 450,160 450,432 445,488 62,485 "/>
<path class="st0" d="M56,488c0,4.4,3.6,8,8,8h384c4.4,0,8-3.6,8-8V56c0-22.1-17.9-40-40-40H64c-4.4,0-8,3.6-8,8V488z M440,56v24h-32
	V48c0-5.6-1.5-11.1-4.3-16H416C429.2,32,440,42.8,440,56z M72,32h304c8.8,0,16,7.2,16,16v40c0,4.4,3.6,8,8,8h40v384H72V32z"/>
<path class="st1" d="M400,416h-64c-4.4,0-8,3.6-8,8s3.6,8,8,8h64c4.4,0,8-3.6,8-8S404.4,416,400,416z"/>
<path class="st1" d="M400,448H272c-4.4,0-8,3.6-8,8s3.6,8,8,8h128c4.4,0,8-3.6,8-8S404.4,448,400,448z"/>
<path class="st1" d="M168,104c4.4,0,8,3.6,8,8c0,4.4,3.6,8,8,8s8-3.6,8-8c0-10.2-6.4-19.2-16-22.6V88c0-4.4-3.6-8-8-8s-8,3.6-8,8
	v1.4c-12.5,4.4-19,18.1-14.6,30.6c3.4,9.6,12.5,16,22.6,16c4.4,0,8,3.6,8,8s-3.6,8-8,8s-8-3.6-8-8s-3.6-8-8-8s-8,3.6-8,8
	c0,10.2,6.4,19.2,16,22.6v1.4c0,4.4,3.6,8,8,8s8-3.6,8-8v-1.4c12.5-4.4,19-18.1,14.6-30.6c-3.4-9.6-12.5-16-22.6-16
	c-4.4,0-8-3.6-8-8S163.6,104,168,104z"/>
<path class="st1" d="M248,128c0-44.2-35.8-80-80-80s-80,35.8-80,80s35.8,80,80,80C212.2,207.9,247.9,172.2,248,128z M168,192
	c-35.3,0-64-28.7-64-64s28.7-64,64-64s64,28.7,64,64C232,163.3,203.3,192,168,192z"/>
<path class="st1" d="M144,240h-32c-4.4,0-8,3.6-8,8s3.6,8,8,8h32c4.4,0,8-3.6,8-8S148.4,240,144,240z"/>
<path class="st1" d="M320,240H192c-4.4,0-8,3.6-8,8s3.6,8,8,8h128c4.4,0,8-3.6,8-8S324.4,240,320,240z"/>
<path class="st1" d="M400,240h-16c-4.4,0-8,3.6-8,8s3.6,8,8,8h16c4.4,0,8-3.6,8-8S404.4,240,400,240z"/>
<path class="st1" d="M144,272h-32c-4.4,0-8,3.6-8,8s3.6,8,8,8h32c4.4,0,8-3.6,8-8S148.4,272,144,272z"/>
<path class="st1" d="M320,272H192c-4.4,0-8,3.6-8,8s3.6,8,8,8h128c4.4,0,8-3.6,8-8S324.4,272,320,272z"/>
<path class="st1" d="M400,272h-16c-4.4,0-8,3.6-8,8s3.6,8,8,8h16c4.4,0,8-3.6,8-8S404.4,272,400,272z"/>
<path class="st1" d="M144,304h-32c-4.4,0-8,3.6-8,8s3.6,8,8,8h32c4.4,0,8-3.6,8-8S148.4,304,144,304z"/>
<path class="st1" d="M320,304H192c-4.4,0-8,3.6-8,8s3.6,8,8,8h128c4.4,0,8-3.6,8-8S324.4,304,320,304z"/>
<path class="st1" d="M400,304h-16c-4.4,0-8,3.6-8,8s3.6,8,8,8h16c4.4,0,8-3.6,8-8S404.4,304,400,304z"/>
<path class="st1" d="M144,336h-32c-4.4,0-8,3.6-8,8s3.6,8,8,8h32c4.4,0,8-3.6,8-8S148.4,336,144,336z"/>
<path class="st1" d="M320,336H192c-4.4,0-8,3.6-8,8s3.6,8,8,8h128c4.4,0,8-3.6,8-8S324.4,336,320,336z"/>
<path class="st1" d="M400,336h-16c-4.4,0-8,3.6-8,8s3.6,8,8,8h16c4.4,0,8-3.6,8-8S404.4,336,400,336z"/>
<path class="st1" d="M144,368h-32c-4.4,0-8,3.6-8,8s3.6,8,8,8h32c4.4,0,8-3.6,8-8S148.4,368,144,368z"/>
<path class="st1" d="M328,376c0-4.4-3.6-8-8-8H192c-4.4,0-8,3.6-8,8s3.6,8,8,8h128C324.4,384,328,380.4,328,376z"/>
<path class="st1" d="M400,368h-16c-4.4,0-8,3.6-8,8s3.6,8,8,8h16c4.4,0,8-3.6,8-8S404.4,368,400,368z"/>
<path class="st1" d="M400,128h-80c-4.4,0-8,3.6-8,8s3.6,8,8,8h80c4.4,0,8-3.6,8-8S404.4,128,400,128z"/>
<path class="st1" d="M400,160H280c-4.4,0-8,3.6-8,8s3.6,8,8,8h120c4.4,0,8-3.6,8-8S404.4,160,400,160z"/>
<path class="st1" d="M400,192H280c-4.4,0-8,3.6-8,8s3.6,8,8,8h120c4.4,0,8-3.6,8-8S404.4,192,400,192z"/>
</svg>
