<svg xmlns="http://www.w3.org/2000/svg" width="128" height="128" viewBox="0 0 128 128">
  <g id="Group_24" data-name="Group 24" transform="translate(-666 -707)">
    <circle id="Ellipse_16" data-name="Ellipse 16" cx="64" cy="64" r="64" transform="translate(666 707)" fill="#fff" opacity="0.27"/>
    <circle id="Ellipse_12" data-name="Ellipse 12" cx="54" cy="54" r="54" transform="translate(676 717)" fill="#fff"/>
    <g id="undraw_Accept_request_re_d81h" transform="translate(689.73 744)">
      <path id="Path_30" data-name="Path 30" d="M881.967,655.431a2.826,2.826,0,0,0,0,5.652h0a2.826,2.826,0,1,0,0-5.652Z" transform="translate(-806.2 -601.512)" fill="#ccc"/>
      <path id="Path_395" data-name="Path 395" d="M892.528,670.631a.343.343,0,0,1-.206-.069l0,0-.777-.594a.345.345,0,1,1,.42-.548l.5.386,1.19-1.552a.345.345,0,0,1,.484-.064h0l-.007.01.008-.01a.346.346,0,0,1,.064.484l-1.4,1.824a.345.345,0,0,1-.275.135Z" transform="translate(-817.029 -612.712)" fill="#fff"/>
      <path id="Path_31" data-name="Path 31" d="M579.889,460.38h-1.338l-.636-5.161h1.975Z" transform="translate(-510.275 -401.94)" fill="#ffb8b8"/>
      <path id="Path_32" data-name="Path 32" d="M562.928,496.048h2.581v1.625H561.3a1.625,1.625,0,0,1,1.625-1.625Z" transform="translate(-495.607 -437.99)" fill="#2f2e41"/>
      <path id="Path_33" data-name="Path 33" d="M534.389,460.38h-1.338l-.636-5.161h1.975Z" transform="translate(-470.1 -401.94)" fill="#ffb8b8"/>
      <path id="Path_34" data-name="Path 34" d="M517.428,496.048h2.581v1.625H515.8a1.625,1.625,0,0,1,1.625-1.625Z" transform="translate(-455.433 -437.99)" fill="#2f2e41"/>
      <path id="Path_35" data-name="Path 35" d="M857.381,505.715a1.1,1.1,0,0,1,.231-1.667l-.414-2.473,1.442-.618.536,3.5a1.1,1.1,0,0,1-1.795,1.258Z" transform="translate(-786.736 -465.118)" fill="#ffb8b8"/>
      <path id="Path_36" data-name="Path 36" d="M749.556,494.654a1.1,1.1,0,0,0,.047-1.682l.817-2.371-1.32-.848-1.107,3.365a1.1,1.1,0,0,0,1.562,1.537Z" transform="translate(-690.198 -455.225)" fill="#ffb8b8"/>
      <circle id="Ellipse_17" data-name="Ellipse 17" cx="2.875" cy="2.875" r="2.875" transform="translate(63.336 16.212)" fill="#ffb8b8"/>
      <path id="Path_37" data-name="Path 37" d="M752.03,411.279a.527.527,0,0,1-.146-.021l-.838-.241a.528.528,0,0,1-.361-.65l1.729-6.105,2.411-5.919a1.537,1.537,0,0,1,1.307-1.007,1.34,1.34,0,0,1,1.262.735h0a1.828,1.828,0,0,1,.042,1.612l-2.741,5.994-2.179,5.277A.526.526,0,0,1,752.03,411.279Z" transform="translate(-692.761 -373.624)" fill="#e9c79a"/>
      <path id="Path_38" data-name="Path 38" d="M798.373,327.92l-1.6.028a1.062,1.062,0,0,1-1.041-1.357,2.486,2.486,0,0,0,.077-.353,1.789,1.789,0,0,0,.01-.393.58.58,0,0,0-1.118-.165h0c-.269,0-.841-.084-1.109-.08-.57-1.462.672-3.375,2.01-4.093a2.63,2.63,0,0,1,3.657,1.539,1.628,1.628,0,0,1,1.408,1.534,3.127,3.127,0,0,1-.745,2.264A2.761,2.761,0,0,1,798.373,327.92Z" transform="translate(-730.54 -306.422)" fill="#2f2e41"/>
      <path id="Path_39" data-name="Path 39" d="M782.227,536.1a.528.528,0,0,1-.522-.469l-.593-19.925,7.466.531.006.048c1.687,14.123,1.11,19.011,1.1,19.059a.526.526,0,0,1-.594.492l-1.65.04a.526.526,0,0,1-.467-.5l-1.542-14.431a.165.165,0,0,0-.172-.124.171.171,0,0,0-.168.138l-.6,14.479a.524.524,0,0,1-.473.547l-1.748.116Z" transform="translate(-719.644 -478.139)" fill="#2f2e41"/>
      <path id="Path_40" data-name="Path 40" d="M782.669,407.137l-.134,0a6.682,6.682,0,0,1-4.29-2.185.524.524,0,0,1-.127-.48l1.239-5.239-.329-4.555a4.491,4.491,0,0,1,1.23-3.468,3.706,3.706,0,0,1,2.854-1.155,4.132,4.132,0,0,1,3.753,4.252c.023,3.539-.081,3.782-.115,3.862-1.043,2.434-.473,5.851-.274,6.84a.529.529,0,0,1-.157.49A5.284,5.284,0,0,1,782.669,407.137Z" transform="translate(-716.988 -367.192)" fill="#e9c79a"/>
      <path id="Path_41" data-name="Path 41" d="M836.265,415.529a.526.526,0,0,1-.513-.409l-1.278-5.566-1.712-6.362a1.829,1.829,0,0,1,.308-1.583,1.341,1.341,0,0,1,1.365-.516,1.538,1.538,0,0,1,1.123,1.209l1.4,6.23.7,6.313a.528.528,0,0,1-.464.581l-.866.1A.53.53,0,0,1,836.265,415.529Z" transform="translate(-765.193 -376.915)" fill="#e9c79a"/>
      <path id="Path_42" data-name="Path 42" d="M290.226,200.836h-31.25a3.043,3.043,0,1,1,0-6.086h31.25a3.043,3.043,0,0,1,0,6.086Z" transform="translate(-255.933 -194.75)" fill="#e6e6e6"/>
      <path id="Path_43" data-name="Path 43" d="M266.481,203.25a2.048,2.048,0,0,0,0,4.1h31.25a2.048,2.048,0,0,0,0-4.1Z" transform="translate(-263.438 -202.255)" fill="#fff"/>
      <path id="Path_44" data-name="Path 44" d="M621.967,196.431a2.826,2.826,0,1,0,0,5.652h0a2.826,2.826,0,1,0,0-5.652Z" transform="translate(-576.631 -196.234)" fill="#e9c79a"/>
      <path id="Path_395-2" data-name="Path 395" d="M632.528,211.631a.343.343,0,0,1-.206-.069l0,0-.777-.594a.345.345,0,1,1,.42-.548l.5.386,1.189-1.552a.345.345,0,0,1,.484-.064h0l-.007.01.008-.01a.346.346,0,0,1,.064.484l-1.4,1.824a.345.345,0,0,1-.275.135Z" transform="translate(-587.46 -207.435)" fill="#fff"/>
      <path id="Path_45" data-name="Path 45" d="M290.226,288.836h-31.25a3.043,3.043,0,1,1,0-6.086h31.25a3.043,3.043,0,0,1,0,6.086Z" transform="translate(-255.933 -272.45)" fill="#e6e6e6"/>
      <path id="Path_46" data-name="Path 46" d="M266.481,291.25a2.048,2.048,0,0,0,0,4.1h31.25a2.048,2.048,0,0,0,0-4.1Z" transform="translate(-263.438 -279.956)" fill="#fff"/>
      <path id="Path_47" data-name="Path 47" d="M621.967,284.431a2.826,2.826,0,1,0,0,5.652h0a2.826,2.826,0,1,0,0-5.652Z" transform="translate(-576.631 -273.935)" fill="#e9c79a"/>
      <path id="Path_395-3" data-name="Path 395" d="M632.528,299.631a.343.343,0,0,1-.206-.069l0,0-.777-.594a.345.345,0,1,1,.42-.548l.5.386,1.189-1.552a.345.345,0,0,1,.484-.064h0l-.007.01.008-.01a.346.346,0,0,1,.064.484l-1.4,1.824a.345.345,0,0,1-.275.135Z" transform="translate(-587.46 -285.135)" fill="#fff"/>
      <path id="Path_48" data-name="Path 48" d="M290.226,376.836h-31.25a3.043,3.043,0,1,1,0-6.086h31.25a3.043,3.043,0,0,1,0,6.086Z" transform="translate(-255.933 -350.151)" fill="#e6e6e6"/>
      <path id="Path_49" data-name="Path 49" d="M266.481,379.25a2.048,2.048,0,1,0,0,4.1h31.25a2.048,2.048,0,0,0,0-4.1Z" transform="translate(-263.438 -357.656)" fill="#fff"/>
      <path id="Path_50" data-name="Path 50" d="M621.967,372.431a2.826,2.826,0,1,0,0,5.652h0a2.826,2.826,0,1,0,0-5.652Z" transform="translate(-576.631 -351.635)" fill="#e6e6e6"/>
      <path id="Path_51" data-name="Path 51" d="M757.646,703.484H733.184a.117.117,0,0,1,0-.234h24.462a.117.117,0,1,1,0,.234Z" transform="translate(-677.223 -643.734)" fill="#ccc"/>
    </g>
  </g>
</svg>
