<svg xmlns="http://www.w3.org/2000/svg" width="128" height="128" viewBox="0 0 128 128">
  <g id="review-trader" transform="translate(-156 -705)">
    <circle id="Ellipse_34" data-name="Ellipse 34" cx="64" cy="64" r="64" transform="translate(156 705)" fill="#fff" opacity="0.27"/>
    <path id="Path_152" data-name="Path 152" d="M54,0A54,54,0,1,1,0,54,54,54,0,0,1,54,0Z" transform="translate(166 715)" fill="#fff"/>
    <rect id="Rectangle_82" data-name="Rectangle 82" width="26" height="10" rx="1" transform="translate(208 741)" fill="#9ae9c7"/>
    <g id="undraw_Post_online_re_1b82" transform="translate(196.748 731)">
      <path id="Path_118" data-name="Path 118" d="M455.577,138.492H430.9a6.848,6.848,0,0,1-6.848-6.848v-63.9A6.855,6.855,0,0,1,430.9,60.9h24.677a6.855,6.855,0,0,1,6.848,6.848V79.287h.425v8.5h-.425v43.854a6.848,6.848,0,0,1-6.847,6.848ZM430.9,61.111a6.642,6.642,0,0,0-6.635,6.635v63.9a6.635,6.635,0,0,0,6.635,6.635h24.677a6.635,6.635,0,0,0,6.635-6.635V87.578h.425V79.5h-.425V67.746a6.642,6.642,0,0,0-6.635-6.635Z" transform="translate(-419.459 -60.899)" fill="#3f3d56"/>
      <path id="Path_119" data-name="Path 119" d="M471.484,151.479h-24.8a5.147,5.147,0,0,1-5.141-5.141v-63.8a5.147,5.147,0,0,1,5.141-5.141h3.166l-.06.146a2.287,2.287,0,0,0,2.116,3.149h14.137a2.287,2.287,0,0,0,2.116-3.149l-.06-.146h3.379a5.147,5.147,0,0,1,5.141,5.141v63.8A5.147,5.147,0,0,1,471.484,151.479Zm-24.8-73.874a4.934,4.934,0,0,0-4.928,4.928v63.8a4.934,4.934,0,0,0,4.928,4.928h24.8a4.934,4.934,0,0,0,4.928-4.928v-63.8h0a4.934,4.934,0,0,0-4.928-4.928h-3.068a2.5,2.5,0,0,1-2.368,3.3H451.912a2.5,2.5,0,0,1-2.368-3.3Z" transform="translate(-435.094 -75.639)" fill="#ccc"/>
      <path id="Path_120" data-name="Path 120" d="M425.109,300.648H383.1a2.248,2.248,0,0,1-2.246-2.246V284.927a2.248,2.248,0,0,1,2.246-2.246h42.012a2.248,2.248,0,0,1,2.246,2.246V298.4A2.248,2.248,0,0,1,425.109,300.648Z" transform="translate(-380.851 -259.1)" fill="#fff"/>
      <path id="Path_121" data-name="Path 121" d="M425.109,300.648H383.1a2.248,2.248,0,0,1-2.246-2.246V284.927a2.248,2.248,0,0,1,2.246-2.246h42.012a2.248,2.248,0,0,1,2.246,2.246V298.4A2.248,2.248,0,0,1,425.109,300.648Zm-42.012-17.7a1.984,1.984,0,0,0-1.982,1.982V298.4a1.984,1.984,0,0,0,1.982,1.982h42.012a1.984,1.984,0,0,0,1.982-1.982V284.927a1.984,1.984,0,0,0-1.982-1.982Z" transform="translate(-380.851 -259.1)" fill="#3f3d56"/>
      <path id="Path_122" data-name="Path 122" d="M519.211,342.572H504.547a1.057,1.057,0,0,1,0-2.114h14.665a1.057,1.057,0,0,1,0,2.114Z" transform="translate(-490.45 -310.734)" fill="#9ae9c7"/>
      <path id="Path_123" data-name="Path 123" d="M532.819,376.12H504.547a1.057,1.057,0,0,1,0-2.114h28.272a1.057,1.057,0,1,1,0,2.114Z" transform="translate(-490.45 -340.715)" fill="#9ae9c7"/>
      <circle id="Ellipse_36" data-name="Ellipse 36" cx="3.963" cy="3.963" r="3.963" transform="translate(3.078 28.601)" fill="#9ae9c7"/>
      <path id="Path_124" data-name="Path 124" d="M739.341,416.5h-3.7a1.057,1.057,0,1,1,0-2.114h3.7a1.057,1.057,0,0,1,0,2.114Z" transform="translate(-696.974 -376.804)" fill="#fff"/>
      <path id="Path_125" data-name="Path 125" d="M739.341,416.5h-3.7a1.057,1.057,0,1,1,0-2.114h3.7a1.057,1.057,0,0,1,0,2.114Z" transform="translate(-696.974 -376.804)" fill="#ccc"/>
      <path id="Path_126" data-name="Path 126" d="M512.478,166.156H489.1a1.251,1.251,0,0,1-1.25-1.25v-7.5a1.251,1.251,0,0,1,1.25-1.25h23.377a1.251,1.251,0,0,1,1.25,1.25v7.5A1.251,1.251,0,0,1,512.478,166.156ZM489.1,156.305a1.1,1.1,0,0,0-1.1,1.1v7.5a1.1,1.1,0,0,0,1.1,1.1h23.377a1.1,1.1,0,0,0,1.1-1.1v-7.5a1.1,1.1,0,0,0-1.1-1.1Z" transform="translate(-476.474 -146.03)" fill="#9ae9c7"/>
      <path id="Path_127" data-name="Path 127" d="M564.84,189.484h-8.16a.588.588,0,1,1,0-1.176h8.16a.588.588,0,0,1,0,1.176Z" transform="translate(-537.459 -174.761)" fill="#fff"/>
      <path id="Path_128" data-name="Path 128" d="M572.412,208.152H556.68a.588.588,0,1,1,0-1.176h15.732a.588.588,0,0,1,0,1.176Z" transform="translate(-537.459 -191.444)" fill="#fff"/>
      <circle id="Ellipse_37" data-name="Ellipse 37" cx="2.205" cy="2.205" r="2.205" transform="translate(13.09 12.922)" fill="#fff"/>
      <path id="Path_129" data-name="Path 129" d="M687.329,230.622h-2.058a.588.588,0,0,1,0-1.176h2.058a.588.588,0,1,1,0,1.176Z" transform="translate(-652.378 -211.525)" fill="#fff"/>
      <path id="Path_130" data-name="Path 130" d="M687.329,230.622h-2.058a.588.588,0,0,1,0-1.176h2.058a.588.588,0,1,1,0,1.176Z" transform="translate(-652.378 -211.525)" fill="#fff"/>
      <path id="Path_131" data-name="Path 131" d="M512.478,492.156H489.1a1.251,1.251,0,0,1-1.25-1.25v-7.5a1.251,1.251,0,0,1,1.25-1.25h23.377a1.251,1.251,0,0,1,1.25,1.25v7.5a1.251,1.251,0,0,1-1.25,1.25ZM489.1,482.305a1.1,1.1,0,0,0-1.1,1.1v7.5a1.1,1.1,0,0,0,1.1,1.1h23.377a1.1,1.1,0,0,0,1.1-1.1v-7.5a1.1,1.1,0,0,0-1.1-1.1Z" transform="translate(-476.474 -437.368)" fill="#ccc"/>
      <path id="Path_132" data-name="Path 132" d="M564.84,515.484h-8.16a.588.588,0,1,1,0-1.176h8.16a.588.588,0,0,1,0,1.176Z" transform="translate(-537.459 -466.099)" fill="#e6e6e6"/>
      <path id="Path_133" data-name="Path 133" d="M572.412,534.152H556.68a.588.588,0,1,1,0-1.176h15.732a.588.588,0,1,1,0,1.176Z" transform="translate(-537.459 -482.782)" fill="#e6e6e6"/>
      <circle id="Ellipse_38" data-name="Ellipse 38" cx="2.205" cy="2.205" r="2.205" transform="translate(13.09 47.584)" fill="#e6e6e6"/>
      <path id="Path_134" data-name="Path 134" d="M687.329,556.622h-2.058a.588.588,0,1,1,0-1.176h2.058a.588.588,0,1,1,0,1.176Z" transform="translate(-652.378 -502.863)" fill="#fff"/>
      <path id="Path_135" data-name="Path 135" d="M687.329,556.622h-2.058a.588.588,0,1,1,0-1.176h2.058a.588.588,0,1,1,0,1.176Z" transform="translate(-652.378 -502.863)" fill="#ccc"/>
      <path id="Path_136" data-name="Path 136" d="M512.478,623.156H489.1a1.251,1.251,0,0,1-1.25-1.25v-7.5a1.251,1.251,0,0,1,1.25-1.25h23.377a1.251,1.251,0,0,1,1.25,1.25v7.5A1.251,1.251,0,0,1,512.478,623.156ZM489.1,613.305a1.1,1.1,0,0,0-1.1,1.1v7.5a1.1,1.1,0,0,0,1.1,1.1h23.377a1.1,1.1,0,0,0,1.1-1.1v-7.5a1.1,1.1,0,0,0-1.1-1.1Z" transform="translate(-476.474 -554.439)" fill="#ccc"/>
      <path id="Path_137" data-name="Path 137" d="M564.84,646.484h-8.16a.588.588,0,1,1,0-1.176h8.16a.588.588,0,0,1,0,1.176Z" transform="translate(-537.459 -583.17)" fill="#e6e6e6"/>
      <path id="Path_138" data-name="Path 138" d="M572.412,665.152H556.68a.588.588,0,1,1,0-1.176h15.732a.588.588,0,1,1,0,1.176Z" transform="translate(-537.459 -599.853)" fill="#e6e6e6"/>
      <circle id="Ellipse_39" data-name="Ellipse 39" cx="2.205" cy="2.205" r="2.205" transform="translate(13.09 61.512)" fill="#e6e6e6"/>
      <path id="Path_139" data-name="Path 139" d="M687.329,687.622h-2.058a.588.588,0,0,1,0-1.176h2.058a.588.588,0,0,1,0,1.176Z" transform="translate(-652.378 -619.934)" fill="#fff"/>
      <path id="Path_140" data-name="Path 140" d="M687.329,687.622h-2.058a.588.588,0,0,1,0-1.176h2.058a.588.588,0,0,1,0,1.176Z" transform="translate(-652.378 -619.934)" fill="#ccc"/>
      <path id="Path_141" data-name="Path 141" d="M201.655,723.543h1.3l.62-5.028h-1.924Z" transform="translate(-180.214 -642.119)" fill="#ffb8b8"/>
      <path id="Path_142" data-name="Path 142" d="M579.381,822.7h2.567a1.636,1.636,0,0,1,1.636,1.636v.053h-4.2Z" transform="translate(-558.272 -741.699)" fill="#2f2e41"/>
      <path id="Path_143" data-name="Path 143" d="M152.655,723.543h1.3l.62-5.028h-1.924Z" transform="translate(-136.424 -642.119)" fill="#ffb8b8"/>
      <path id="Path_144" data-name="Path 144" d="M530.381,822.7h2.567a1.636,1.636,0,0,1,1.636,1.636v.053h-4.2Z" transform="translate(-514.482 -741.699)" fill="#2f2e41"/>
      <circle id="Ellipse_40" data-name="Ellipse 40" cx="2.611" cy="2.611" r="2.611" transform="translate(19.09 41.392)" fill="#ffb8b8"/>
      <path id="Path_145" data-name="Path 145" d="M535.255,631.671h-2.419a.478.478,0,0,1-.478-.484L532.5,619.7a.159.159,0,0,0-.318-.021l-1.408,11.571a.479.479,0,0,1-.475.421h-2.442a.478.478,0,0,1-.477-.516l1.613-20.635.044,0,7.722-.834-1.024,21.534a.478.478,0,0,1-.478.456Z" transform="translate(-511.798 -551.332)" fill="#2f2e41"/>
      <path id="Path_146" data-name="Path 146" d="M539.245,521.2a.478.478,0,0,1-.477-.463,37.883,37.883,0,0,1,.725-9.134,4.351,4.351,0,0,1,4.018-3.279h0a4.378,4.378,0,0,1,4.312,2.767c1.411,3.583,2.745,8,1.082,8.693-2.179.908-7.924,1.313-9.632,1.415Z" transform="translate(-521.958 -460.748)" fill="#9ae9c7"/>
      <path id="Path_147" data-name="Path 147" d="M626.539,434.057a1.118,1.118,0,0,0,.133.116l-.274,5.266-1.14.584.656,1.836,2.119-.837a.851.851,0,0,0,.534-.87l-.555-5.973a1.116,1.116,0,1,0-1.472-.121Z" transform="translate(-599.271 -392.693)" fill="#ffb8b8"/>
      <path id="Path_148" data-name="Path 148" d="M605.17,499.712l.8,2.279a.479.479,0,0,1-.36.629l-2.365.458a1.329,1.329,0,0,1-.875-2.51l2.124-1.121a.478.478,0,0,1,.675.264Z" transform="translate(-578.022 -452.77)" fill="#9ae9c7"/>
      <path id="Path_149" data-name="Path 149" d="M513.854,434.057a1.123,1.123,0,0,1-.133.116l.274,5.266,1.14.584-.656,1.836-2.119-.837a.851.851,0,0,1-.534-.87l.555-5.973a1.116,1.116,0,1,1,1.472-.121Z" transform="translate(-497.897 -392.692)" fill="#ffb8b8"/>
      <path id="Path_150" data-name="Path 150" d="M525.363,499.425a.478.478,0,0,1,.4.022l2.124,1.121a1.329,1.329,0,1,1-.875,2.509l-2.365-.458a.478.478,0,0,1-.36-.629l.8-2.28A.478.478,0,0,1,525.363,499.425Z" transform="translate(-509.009 -452.77)" fill="#9ae9c7"/>
      <path id="Path_151" data-name="Path 151" d="M556.6,435.89a1.717,1.717,0,0,1,.961-1.613,1.9,1.9,0,0,0,1.074-2.082,2.293,2.293,0,0,0-2.8-1.333,5.163,5.163,0,0,0-.878.408l-.736.395a7.624,7.624,0,0,0-.907.536,3.011,3.011,0,0,0-1.2,2.821,4.025,4.025,0,0,0,1.756,2.643,2.971,2.971,0,0,0,1.2.535,1.6,1.6,0,0,0,1.269-.288,1.67,1.67,0,0,0,.292-1.767,1.289,1.289,0,0,1-.04-.256Z" transform="translate(-533.887 -391.441)" fill="#2f2e41"/>
    </g>
  </g>
</svg>
