<svg xmlns="http://www.w3.org/2000/svg" width="19.308" height="24.191" viewBox="0 0 19.308 24.191">
  <g id="review" transform="translate(-51.678 0)">
    <path id="Path_106" data-name="Path 106" d="M70.052,10.065l.806-1.952a1.669,1.669,0,0,0-.672-2.068l-1.8-1.105-.5-2.053a1.67,1.67,0,0,0-1.759-1.278l-2.105.163L62.42.4a1.669,1.669,0,0,0-2.175,0l-1.607,1.37-2.105-.163a1.67,1.67,0,0,0-1.759,1.278l-.5,2.053-1.8,1.105a1.669,1.669,0,0,0-.672,2.068l.806,1.952-.806,1.952a1.669,1.669,0,0,0,.672,2.068l1.8,1.105.5,2.053a1.669,1.669,0,0,0,1.439,1.273l-1.943,4.351a.827.827,0,0,0,1.038,1.114l1.256-.458a.348.348,0,0,1,.265.01l1.294.585a.824.824,0,0,0,1.143-.565l.286-1.232a.354.354,0,0,0-.69-.16l-.286,1.232a.116.116,0,0,1-.16.079l-1.294-.585a1.053,1.053,0,0,0-.8-.03l-1.256.458a.118.118,0,0,1-.148-.159L57,18.485l1.092-.085-.688,2.065a.354.354,0,0,0,.224.448.371.371,0,0,0,.448-.224l.729-2.187.754.642-.327,1.41a.354.354,0,0,0,.265.425.371.371,0,0,0,.425-.265l.244-1.053a1.68,1.68,0,0,0,2.32.008l.9,3.877a.823.823,0,0,0,1.16.557l1.165-.56a.348.348,0,0,1,.267-.015l1.389.484A.827.827,0,0,0,68.4,22.894l-.7-1.57a.354.354,0,0,0-.647.289l.7,1.57a.118.118,0,0,1-.147.16l-1.389-.484a1.052,1.052,0,0,0-.807.045l-1.165.56a.116.116,0,0,1-.163-.078L63.1,19.152l.836-.713.75,2.25a.354.354,0,0,0,.672-.224l-.686-2.057.983.076.721,1.615a.354.354,0,0,0,.647-.289l-.577-1.293a1.668,1.668,0,0,0,1.45-1.274l.5-2.053,1.8-1.105a1.669,1.669,0,0,0,.672-2.068Zm-.237,3.416-1.841,1.131a.587.587,0,0,0-.265.365l-.507,2.1a.964.964,0,0,1-1.016.738l-2.154-.167a.586.586,0,0,0-.428.139l-1.644,1.4a.964.964,0,0,1-1.255,0l-1.644-1.4a.653.653,0,0,0-.428-.139l-2.154.167a.964.964,0,0,1-1.016-.738l-.507-2.1a.587.587,0,0,0-.265-.365L52.85,13.481a.964.964,0,0,1-.388-1.194l.825-2a.587.587,0,0,0,0-.451l-.825-2a.964.964,0,0,1,.388-1.194l1.841-1.131a.587.587,0,0,0,.265-.365l.507-2.1a.964.964,0,0,1,1.016-.738l2.154.167a.585.585,0,0,0,.428-.139L60.7.942a.964.964,0,0,1,1.255,0l1.644,1.4a.588.588,0,0,0,.428.139l2.154-.167a.964.964,0,0,1,1.016.738l.507,2.1a.587.587,0,0,0,.265.365l1.841,1.131A.964.964,0,0,1,70.2,7.843l-.825,2a.587.587,0,0,0,0,.451l.825,2A.964.964,0,0,1,69.815,13.481Z" transform="translate(0 0)" fill="#55aa47"/>
    <path id="Path_107" data-name="Path 107" d="M95.941,37.769a.586.586,0,0,1,0-.45l.849-2.056a.588.588,0,0,0-.237-.728l-1.9-1.164a.586.586,0,0,1-.265-.364l-.522-2.162a.588.588,0,0,0-.62-.45l-2.218.172a.587.587,0,0,1-.428-.139l-1.693-1.443a.588.588,0,0,0-.766,0l-1.693,1.443a.586.586,0,0,1-.428.139l-2.218-.172a.588.588,0,0,0-.62.45l-.522,2.162a.586.586,0,0,1-.265.364l-1.9,1.164a.588.588,0,0,0-.237.728l.849,2.056a.586.586,0,0,1,0,.45l-.849,2.056a.588.588,0,0,0,.237.728l1.9,1.164a.586.586,0,0,1,.265.364l.522,2.162a.587.587,0,0,0,.62.45l2.218-.172a.587.587,0,0,1,.428.139L88.147,46.1a.588.588,0,0,0,.766,0l1.693-1.443a.587.587,0,0,1,.428-.139l2.218.172a.589.589,0,0,0,.62-.45l.522-2.162a.586.586,0,0,1,.265-.364l1.9-1.164a.588.588,0,0,0,.237-.728Zm.194-2.777h0Zm-1.848,6.122a1.29,1.29,0,0,0-.583.8l-.5,2.064-2.117-.164a1.29,1.29,0,0,0-.943.306L88.53,45.5l-1.616-1.377a1.362,1.362,0,0,0-.943-.306l-2.117.164-.5-2.064a1.291,1.291,0,0,0-.583-.8L80.963,40l.811-1.963a1.29,1.29,0,0,0,0-.991l-.811-1.963,1.809-1.112a1.29,1.29,0,0,0,.583-.8l.5-2.064,2.117.164a1.289,1.289,0,0,0,.943-.306l1.616-1.377,1.616,1.377a1.291,1.291,0,0,0,.943.306l2.117-.164.5,2.064a1.291,1.291,0,0,0,.583.8L96.1,35.086l-.811,1.963a1.29,1.29,0,0,0,0,.991L96.1,40Z" transform="translate(-27.197 -27.479)" fill="#55aa47"/>
    <path id="Path_108" data-name="Path 108" d="M169.936,87.157a1.078,1.078,0,0,0-.881-1.7h-1.619a.853.853,0,0,1-.822-1.011l.171-.917a1.643,1.643,0,0,0-.885-1.771.746.746,0,0,0-1.037.433l-.351,1.044a.354.354,0,1,0,.672.226l.351-1.044a.038.038,0,0,1,.022-.024.034.034,0,0,1,.03,0,.932.932,0,0,1,.5,1l-.171.917a1.566,1.566,0,0,0,1.519,1.85h1.619a.37.37,0,0,1,0,.74h-.992a.354.354,0,0,0,0,.709h1.182a.37.37,0,0,1,0,.74h-1.182a.354.354,0,0,0,0,.709h.992a.37.37,0,0,1,0,.74h-.992a.354.354,0,1,0,0,.709h.493a.362.362,0,0,1,0,.723h-3.8a1.652,1.652,0,0,1-1.4-.728V86.7a3.489,3.489,0,0,0,1.289-1.645.354.354,0,1,0-.658-.264,3.034,3.034,0,0,1-.744,1.1.86.86,0,0,0-.748-.437h-.649a.861.861,0,0,0-.86.86v1.9a.354.354,0,1,0,.709,0v-1.9a.152.152,0,0,1,.152-.152h.649a.152.152,0,0,1,.152.152v4.765a.152.152,0,0,1-.152.152h-.649a.152.152,0,0,1-.152-.152v-1.2a.354.354,0,1,0-.709,0v1.2a.861.861,0,0,0,.86.86h.649a.861.861,0,0,0,.779-.5,2.353,2.353,0,0,0,1.485.5h3.8a1.07,1.07,0,0,0,.963-1.537,1.078,1.078,0,0,0,.417-1.6,1.077,1.077,0,0,0,0-1.653Z" transform="translate(-104.14 -77.823)" fill="#55aa47"/>
  </g>
</svg>
