<svg xmlns="http://www.w3.org/2000/svg" width="46.048" height="24.051" viewBox="0 0 46.048 24.051">
  <path id="roof" d="M45.995,20.365v-.005L38.611,3.247a4.066,4.066,0,0,0-1.175-1.564A5.413,5.413,0,0,0,34.061.5H12.8a.675.675,0,0,0,0,1.349H15.21L13.994,7.484a6.331,6.331,0,0,0-6.571-.8l1.252-2.9A2.727,2.727,0,0,1,9.461,2.73a7.608,7.608,0,0,1,.892-.541A.675.675,0,1,0,9.809.954a5.382,5.382,0,0,0-1.18.714l-.009.008A4.074,4.074,0,0,0,7.436,3.247L2.684,14.264c-.006.014-.012.027-.018.041L.055,20.359v.005A.671.671,0,0,0,0,20.634v2.443a1.07,1.07,0,0,0,1.8.779,6.5,6.5,0,0,1,9.255.344,1.072,1.072,0,0,0,1.58,0,6.5,6.5,0,0,1,9.595,0,1.072,1.072,0,0,0,1.58,0,6.5,6.5,0,0,1,9.595,0,1.072,1.072,0,0,0,1.58,0,6.465,6.465,0,0,1,3.306-1.943.674.674,0,1,0-.308-1.313A7.8,7.8,0,0,0,34.2,23.074a7.848,7.848,0,0,0-11.175,0,7.848,7.848,0,0,0-11.175,0,7.849,7.849,0,0,0-10.5-.61V20.871a6.5,6.5,0,0,1,9.975.179.675.675,0,0,0,1.057-.008,6.471,6.471,0,0,1,5.055-2.415,6.4,6.4,0,0,1,5.076,2.439l.026.029a.6.6,0,0,0,.054.051.674.674,0,0,0,.876-.011l.026-.024.029-.031.024-.028h0a6.472,6.472,0,0,1,5.061-2.423,6.567,6.567,0,0,1,5.142,2.506.681.681,0,0,0,.961-.069,6.493,6.493,0,0,1,9.986-.193v1.593a7.787,7.787,0,0,0-3.751-1.641.675.675,0,0,0-.2,1.335,6.452,6.452,0,0,1,3.494,1.7,1.07,1.07,0,0,0,1.8-.779V20.634a.665.665,0,0,0-.053-.269ZM11.458,19.242a7.863,7.863,0,0,0-9.035-.966l1.448-3.357a5.792,5.792,0,0,1,8.518,0Zm1.265-5.867a7.165,7.165,0,0,0-7.79-.919L6.383,9.1a4.953,4.953,0,0,1,7.28-.08ZM22.349,19a7.86,7.86,0,0,0-9.39-.327l.8-3.71a5.791,5.791,0,0,1,8.589-.009Zm0-5.871a7.174,7.174,0,0,0-8.125-.317l.8-3.723a4.953,4.953,0,0,1,7.323-.032Zm0-5.865a6.337,6.337,0,0,0-6.869-.277L16.59,1.847h5.759Zm11.712-5.42a4.005,4.005,0,0,1,2.531.888,2.717,2.717,0,0,1,.78,1.047l1.252,2.9a6.331,6.331,0,0,0-6.571.8L30.837,1.847Zm-10.363,0h5.759L30.567,6.99a6.337,6.337,0,0,0-6.869.277Zm0,7.214a4.954,4.954,0,0,1,7.322.032l.8,3.723a7.174,7.174,0,0,0-8.125.317Zm4.912,8.216A7.809,7.809,0,0,0,23.7,19V14.957a5.791,5.791,0,0,1,8.589.008l.8,3.711a7.816,7.816,0,0,0-4.477-1.4Zm3.773-8.262a4.953,4.953,0,0,1,7.281.08l1.45,3.361a7.165,7.165,0,0,0-7.79.919ZM34.59,19.242l-.931-4.318a5.792,5.792,0,0,1,8.518,0l1.449,3.357a7.858,7.858,0,0,0-9.035.966Zm0,0" transform="translate(0 -0.497)" fill="#303030"/>
</svg>
