<svg xmlns="http://www.w3.org/2000/svg" width="17" height="17" viewBox="0 0 17 17">
  <g id="pencil" transform="translate(-0.001)">
    <g id="Group_11" data-name="Group 11" transform="translate(0.001 0)">
      <path id="Path_104" data-name="Path 104" d="M15.985,11.13a3.446,3.446,0,0,0-3.445-.855L11.327,9.062l5.3-5.3a1.27,1.27,0,0,0,0-1.8L15.038.372a1.27,1.27,0,0,0-1.8,0l-5.3,5.3L6.726,4.461A3.439,3.439,0,0,0,2.053.3a.332.332,0,0,0-.1.539L3.536,2.423l-1.12,1.12L.832,1.959a.332.332,0,0,0-.539.1,3.439,3.439,0,0,0,4.16,4.673L5.667,7.947,1.606,12.008a.335.335,0,0,0-.081.131L.079,16.5a.332.332,0,0,0,.42.42l4.359-1.445a.4.4,0,0,0,.135-.082l4.061-4.061,1.214,1.214a3.439,3.439,0,0,0,4.673,4.16.332.332,0,0,0,.1-.539l-1.584-1.584,1.12-1.12,1.584,1.584a.332.332,0,0,0,.539-.1,3.439,3.439,0,0,0-.715-3.818ZM13.712.841a.606.606,0,0,1,.857,0L16.16,2.433a.606.606,0,0,1,0,.857L15.082,4.367,12.634,1.919ZM4.777,6.117a.332.332,0,0,0-.352-.076A2.777,2.777,0,0,1,.739,2.806L2.181,4.248a.332.332,0,0,0,.47,0L4.24,2.658a.332.332,0,0,0,0-.47L2.8.747A2.776,2.776,0,0,1,6.034,4.432a.332.332,0,0,0,.076.352l1.36,1.36L6.137,7.477ZM.917,16.084l.48-1.449.969.969Zm2.155-.714L1.632,13.929l.355-1.071,2.156,2.156Zm1.686-.679L3.769,13.7l3.25-3.25a.332.332,0,0,0-.47-.47L3.3,13.232l-.989-.989,9.855-9.855.027.027.962.962L8.672,7.86a.332.332,0,1,0,.47.47l4.482-4.482.989.989Zm11.5-.488-1.442-1.442a.332.332,0,0,0-.47,0l-1.589,1.589a.332.332,0,0,0,0,.47L14.2,16.262a2.777,2.777,0,0,1-3.236-3.685.332.332,0,0,0-.076-.352l-1.36-1.36,1.333-1.333,1.36,1.36a.332.332,0,0,0,.352.076A2.776,2.776,0,0,1,16.254,14.2Z" transform="translate(-0.001 0)" fill="#55aa47"/>
      <g id="Group_10" data-name="Group 10" transform="translate(7.517 8.82)">
        <path id="Path_105" data-name="Path 105" d="M226.73,266.314a.332.332,0,1,1,.325-.267A.335.335,0,0,1,226.73,266.314Z" transform="translate(-226.399 -265.651)" fill="#55aa47"/>
      </g>
    </g>
  </g>
</svg>
