<svg xmlns="http://www.w3.org/2000/svg" width="128" height="128" viewBox="0 0 128 128">
  <g id="Group_23" data-name="Group 23" transform="translate(-666 -540)">
    <circle id="Ellipse_15" data-name="Ellipse 15" cx="64" cy="64" r="64" transform="translate(666 540)" fill="#fff" opacity="0.27"/>
    <circle id="Ellipse_7" data-name="Ellipse 7" cx="54" cy="54" r="54" transform="translate(676 550)" fill="#fff"/>
    <g id="undraw_sign_in_e6hj" transform="translate(688.679 575.75)">
      <path id="Path_17" data-name="Path 17" d="M68.127,306.586l4.756-6.833-4.758,7.576,0,.777q-.509,0-1.007-.033c0-.177.4-9.889.386-10.065.023-.007.037-.919.046-.958l-4.968-7.467,4.974,6.76.015.2.3-7.546-4.271-7.727,4.3,6.4c0-.1.2-15.6.206-15.692,0,.051.094,12.33.095,12.381l4.084-4.942-4.088,6-.021,6.753,3.79-6.531c-4.73,9.524-3.683,6.191-3.8,11.279l5.506-9.094-5.51,10.4Z" transform="translate(-62.553 -261.077)" fill="#d0cde1"/>
      <path id="Path_18" data-name="Path 18" d="M1078.462,568l1.982-2.847-1.983,3.157v.324q-.212,0-.42-.014c0-.073.168-4.121.161-4.194.01,0,.015-.383.019-.4l-2.07-3.112,2.073,2.817.006.083.123-3.145-1.78-3.22,1.794,2.668c0-.043.085-6.5.086-6.539,0,.021.039,5.138.039,5.16l1.7-2.06-1.7,2.5L1078.48,562l1.58-2.721c-1.971,3.969-1.535,2.58-1.585,4.7l2.294-3.789-2.3,4.335Z" transform="translate(-1000.134 -521.564)" fill="#d0cde1"/>
      <ellipse id="Ellipse_13" data-name="Ellipse 13" cx="40.185" cy="1.574" rx="40.185" ry="1.574" transform="translate(0 45.351)" fill="#d0cde1"/>
      <rect id="Rectangle_38" data-name="Rectangle 38" width="45.883" height="27.355" transform="translate(13.795 18.596)" fill="#3f3d56"/>
      <path id="Path_19" data-name="Path 19" d="M257.6,374.581a10.973,10.973,0,0,1-10.97,10.794c-.129,0-.257,0-.385-.007V374.581Z" transform="translate(-232.447 -355.985)" fill="#6c63ff"/>
      <path id="Path_20" data-name="Path 20" d="M528.336,720.666h-4.364a2.325,2.325,0,0,1,4.364,0Z" transform="translate(-489.355 -674.715)" fill="#6c63ff"/>
      <path id="Path_21" data-name="Path 21" d="M804.11,550.721v9.214a4.613,4.613,0,0,1,0-9.214Z" transform="translate(-744.432 -518.919)" fill="#6c63ff"/>
      <rect id="Rectangle_39" data-name="Rectangle 39" width="31.649" height="2.704" rx="1.352" transform="translate(20.952 28.536)" fill="#fff"/>
      <rect id="Rectangle_40" data-name="Rectangle 40" width="31.649" height="2.704" rx="1.352" transform="translate(20.952 33.864)" fill="#fff"/>
      <rect id="Rectangle_41" data-name="Rectangle 41" width="11.096" height="2.704" rx="1.352" transform="translate(41.505 39.192)" fill="#fff"/>
      <path id="Path_22" data-name="Path 22" d="M938,238.647a2.324,2.324,0,0,1,1.332,2.1c.07,1.612-.35,6.1-.35,6.1s1.542,2.243.35,2.874S938,247.2,938,247.2l-1.4-6.659S937.436,238.577,938,238.647Z" transform="translate(-871.043 -230.241)" fill="#a0616a"/>
      <path id="Path_23" data-name="Path 23" d="M744.191,194.206s-3.014,1.963-3.154.421.911-7.57.911-7.57.14-2.594,1.612-1.963-.421,2.8-.421,2.8l.21,4.907,1.4-.07Z" transform="translate(-690.133 -180.613)" fill="#a0616a"/>
      <path id="Path_24" data-name="Path 24" d="M739.44,315.223s-9.252-3.435-8.762.561a36.628,36.628,0,0,0,2.874,9.042l.841,1.332h1.752l-1.122-7.22s4,2.243,5.187,1.893c0,0,1.542,10.3,2.1,11.075S743.856,342,743.856,342l.911,1.122h1.752V327.349s3.014-9.813.7-10.3S739.44,315.223,739.44,315.223Z" transform="translate(-680.546 -299.807)" fill="#2f2e41"/>
      <path id="Path_25" data-name="Path 25" d="M711.6,461.63s-.421-.771-1.122,0a11.758,11.758,0,0,1-2.383,1.682s-3.645.841-.7,1.542,3.294,0,3.294,0,.491.14.911.28,3.154-.35,3.154-.771-.928-2.934-1.305-2.553S711.6,461.63,711.6,461.63Z" transform="translate(-657.959 -436.191)" fill="#2f2e41"/>
      <path id="Path_26" data-name="Path 26" d="M866.287,686.971s-1.033-.851-1.277-.608-1.52,1.885-1.52,1.885-3.4,2.614-.3,3.04,2.918-.73,2.918-.73h.973c.122,0,1.763-.73,1.7-1.034s-.79-2.783-1.033-2.607A4.233,4.233,0,0,1,866.287,686.971Z" transform="translate(-801.931 -644.352)" fill="#2f2e41"/>
      <circle id="Ellipse_14" data-name="Ellipse 14" cx="2.383" cy="2.383" r="2.383" transform="translate(52.585 0.976)" fill="#a0616a"/>
      <path id="Path_27" data-name="Path 27" d="M799.7,167.615s1.823,1.542,3.084,1.542-1.823,2.874-1.823,2.874l-2.734-2.453Z" transform="translate(-743.047 -164.536)" fill="#a0616a"/>
      <path id="Path_28" data-name="Path 28" d="M776.615,172.734l-.055-.552a14.948,14.948,0,0,1,1.807-2.672,1.74,1.74,0,0,1,.7-.21s1.4-1.472,2.944-.7,5.187,5.678,5.187,5.678-2.594.21-2.243,2.243c0,0,2.593,6.659,1.892,6.729s-2.8-.421-4.977.561-3.154.35-3.154.35l-1.122-3.645s-2.1-1.192-2.033-2.243l-3.049,1.367.28-2.593,1.857-2.138S774.3,174.627,776.615,172.734Z" transform="translate(-719.264 -165.239)" fill="#575a89"/>
      <path id="Path_29" data-name="Path 29" d="M751.454,130.167a.88.88,0,0,1-.346.236.3.3,0,0,1-.361-.139l.1-.131-.3-.188.132-.154-.243-.264.192-.152-.366-.262a6.5,6.5,0,0,1,1.735-2.069,2.4,2.4,0,0,1,2.56-.21,2.8,2.8,0,0,1,.9,1.065,6.2,6.2,0,0,1,.912,2.587c-.285-.277-.7-.434-.985-.711a2.131,2.131,0,0,0-.425-.348,3.555,3.555,0,0,0-.988-.259,1.484,1.484,0,0,1-.674-.371c-.252-.215-.263-.132-.517.11Z" transform="translate(-698.678 -126.55)" fill="#2f2e41"/>
    </g>
  </g>
</svg>
