<svg xmlns="http://www.w3.org/2000/svg" width="28.518" height="35.25" viewBox="0 0 28.518 35.25">
  <g id="surface1" transform="translate(-0.125 0)">
    <path id="Path_13" data-name="Path 13" d="M24.845,23.47c1.227.891,1.807,3.52,1.927,4.46l.915,6.9.956-.126-.914-6.91c-.019-.153-.5-3.793-2.313-5.1a9.8,9.8,0,0,0-1.938-1,.475.475,0,0,0-.134-.073l-.4-.141c-.6-.232-1.229-.449-1.832-.637l-.372-.13a.458.458,0,0,0-.114-.026c-1.008-.319-1.894-.555-2.368-.679V18.954a5.477,5.477,0,0,0,2.294-4.46v-.812a1.524,1.524,0,0,0,.5.092,1.457,1.457,0,0,0,1.457-1.457v-1.3a1.435,1.435,0,0,0-.364-.955,1.5,1.5,0,0,0,.228-.827V8.681a1.655,1.655,0,0,0-.358-1.121,1.008,1.008,0,0,0-.484-.281C21.417,5.963,20.793,2.1,17.46.589h-.029A7.262,7.262,0,0,0,14.687,0H14.41a7.663,7.663,0,0,0-2.654.417h-.023C8.043,1.776,7.378,5.9,7.273,7.266a1,1,0,0,0-.485.281A1.635,1.635,0,0,0,6.4,8.669v.571a1.482,1.482,0,0,0,.226.824,1.453,1.453,0,0,0-.363.958v1.3a1.457,1.457,0,0,0,1.457,1.456,1.412,1.412,0,0,0,.5-.092V14.5a5.486,5.486,0,0,0,2.254,4.423v1.083a46.758,46.758,0,0,0-5.029,1.619H5.425a10.3,10.3,0,0,0-2.072,1.058C1.543,24,1.059,27.64,1.039,27.785L.125,34.7l.956.124L2,27.909c.122-.938.7-3.564,1.912-4.462a7.251,7.251,0,0,1,1.221-.654v4.142a2.5,2.5,0,0,0-1.593,2.513v5.324a.478.478,0,0,0,.478.478H24.778a.477.477,0,0,0,.477-.478V29.457a2.5,2.5,0,0,0-1.593-2.511V22.8A7.032,7.032,0,0,1,24.845,23.47ZM21.563,11.017v1.3a.5.5,0,0,1-1,0v-1.3a.5.5,0,1,1,1-.08A.328.328,0,0,1,21.563,11.017ZM15.063.98a6.338,6.338,0,0,1,1.7.371V3.771a2.345,2.345,0,0,1-1.7,1Zm-2.657.239a6.839,6.839,0,0,1,1.7-.261V4.781a2.343,2.343,0,0,1-1.7-1Zm-4.2,11.1a.5.5,0,0,1-1,0v-1.3a.5.5,0,1,1,1-.08.444.444,0,0,1,0,.08Zm-.5-2.759a1.472,1.472,0,0,0-.267.025.5.5,0,0,1-.1-.347V8.657a.766.766,0,0,1,.112-.431.087.087,0,0,1,.068-.018h.184a.479.479,0,0,0,.478-.479c0-.223.063-4.462,3.26-6.125V3.9a.468.468,0,0,0,.047.2A3.315,3.315,0,0,0,14.581,5.76,3.32,3.32,0,0,0,17.67,4.1a.454.454,0,0,0,.043-.2V1.833c2.8,1.788,2.869,5.681,2.869,5.9a.479.479,0,0,0,.478.479h.185c.047,0,.058,0,.067.018a.774.774,0,0,1,.112.441v.568a.477.477,0,0,1-.1.347,1.424,1.424,0,0,0-1.29.4H8.744a1.442,1.442,0,0,0-1.032-.418ZM9.165,14.5V10.935H19.616V14.5a4.537,4.537,0,0,1-4.541,4.531H13.7A4.536,4.536,0,0,1,9.165,14.5Zm8.15,5.006v.707l-2.931,3.748L11.42,20.216v-.727a5.421,5.421,0,0,0,2.279.5h1.377A5.428,5.428,0,0,0,17.315,19.509ZM8.658,21.52c.911-.278,1.7-.491,2.1-.6l3.63,4.589,3.589-4.589c.412.109,1.21.318,2.141.609v5.474H8.648ZM24.3,29.457V34.3H4.49V29.457a1.508,1.508,0,0,1,1.182-1.67.477.477,0,0,0,.412-.474V22.405c.525-.2,1.083-.4,1.625-.573v5.652a.479.479,0,0,0,.478.479H20.613a.479.479,0,0,0,.478-.479V21.841l1.609.564v4.908a.478.478,0,0,0,.414.474A1.5,1.5,0,0,1,24.3,29.457Zm0,0" transform="translate(0 0)" fill="#303030"/>
    <path id="Path_14" data-name="Path 14" d="M26.707,140.18h2.58v.857h-2.58Zm0,0" transform="translate(-21.11 -111.325)" fill="#303030"/>
    <path id="Path_15" data-name="Path 15" d="M99.586,140.18h2.582v.857H99.586Zm0,0" transform="translate(-78.988 -111.325)" fill="#303030"/>
  </g>
</svg>
