<svg xmlns="http://www.w3.org/2000/svg" width="35.624" height="25.619" viewBox="0 0 35.624 25.619">
  <g id="wireless-charging" transform="translate(0 -3.371)">
    <path id="Path_8" data-name="Path 8" d="M7.438,24.816a.745.745,0,0,1-.525-.217,13.356,13.356,0,0,1,0-18.891A.742.742,0,0,1,7.964,6.757a11.869,11.869,0,0,0,0,16.791.743.743,0,0,1-.525,1.268Z" transform="translate(1.453 1.027)" fill="#303030"/>
    <path id="Path_9" data-name="Path 9" d="M5.744,28.99a.745.745,0,0,1-.525-.217,17.8,17.8,0,0,1,0-25.185A.742.742,0,1,1,6.27,4.637a16.312,16.312,0,0,0,0,23.085.743.743,0,0,1-.525,1.268Z" transform="translate(0 0)" fill="#303030"/>
    <path id="Path_10" data-name="Path 10" d="M20.372,28.99a.741.741,0,0,1-.525-1.266,16.314,16.314,0,0,0,0-23.086A.742.742,0,0,1,20.9,3.588a17.8,17.8,0,0,1,0,25.184.735.735,0,0,1-.524.218Z" transform="translate(9.508)" fill="#303030"/>
    <path id="Path_11" data-name="Path 11" d="M18.252,24.816a.741.741,0,0,1-.525-1.266,11.87,11.87,0,0,0,0-16.792.742.742,0,0,1,1.049-1.049,13.352,13.352,0,0,1,0,18.89.735.735,0,0,1-.524.218Z" transform="translate(8.481 1.027)" fill="#303030"/>
    <path id="Path_12" data-name="Path 12" d="M10.819,27.75a.741.741,0,0,1-.715-.94l2.6-9.451H7.742a.741.741,0,0,1-.594-1.186L16.029,4.3a.742.742,0,0,1,1.327.564l-1.318,8.044H21.1a.741.741,0,0,1,.588,1.195L11.407,27.46A.742.742,0,0,1,10.819,27.75ZM9.225,15.875h4.455a.742.742,0,0,1,.715.94l-1.855,6.742,7.054-9.166H15.164a.74.74,0,0,1-.566-.261.748.748,0,0,1-.168-.6L15.4,7.617Z" transform="translate(3.391 0.305)" fill="#303030"/>
  </g>
</svg>
