<svg xmlns="http://www.w3.org/2000/svg" width="33.958" height="36.714" viewBox="0 0 33.958 36.714">
  <g id="paint" transform="translate(-0.5 -0.001)">
    <path id="Path_101" data-name="Path 101" d="M395.4,23.8h-4.186a.538.538,0,1,0,0,1.076H395.4a.179.179,0,0,1,.179.179V46.128a.538.538,0,1,0,1.076,0V25.056A1.256,1.256,0,0,0,395.4,23.8Zm0,0" transform="translate(-362.201 -22.093)" fill="#303030"/>
    <path id="Path_102" data-name="Path 102" d="M33.92,25.839a.538.538,0,0,0-.538.538v7.255a2.008,2.008,0,1,1-4.017,0V21.668a3.084,3.084,0,0,0-6.168,0v3.638a2.009,2.009,0,0,1-4.017,0V22.622l2.738-2.738A1.454,1.454,0,0,0,22.3,18.5l6.6-6.6a1.457,1.457,0,0,0,0-2.058L21.83,2.783h4.844a.538.538,0,0,0,0-1.076h-5.92L19.474.426a1.457,1.457,0,0,0-2.058,0l-6.6,6.6a1.467,1.467,0,0,0-.352-.044A1.446,1.446,0,0,0,9.439,7.4L6.585,10.259a1.456,1.456,0,0,0,0,2.057L10.369,16.1a30.248,30.248,0,0,1-5.8,4.388A9.094,9.094,0,0,0,2.763,21.9,8.072,8.072,0,0,0,.685,25.213a2.881,2.881,0,0,0,.475,2.95,2.411,2.411,0,0,0,1.758.662,6.087,6.087,0,0,0,3.471-1.368.538.538,0,1,0-.643-.862C4.208,27.742,2.6,28.082,1.92,27.4a1.915,1.915,0,0,1-.2-1.889A6.985,6.985,0,0,1,3.523,22.66a8,8,0,0,1,1.59-1.244,31.325,31.325,0,0,0,6.016-4.554l1.331,1.331a31.324,31.324,0,0,0-4.554,6.017,7.579,7.579,0,0,1-.584.848.538.538,0,0,0,.844.667,8.613,8.613,0,0,0,.667-.969,30.254,30.254,0,0,1,4.388-5.8l3.784,3.784a1.444,1.444,0,0,0,1.029.426c.023,0,.046,0,.069,0v2.146a3.084,3.084,0,0,0,6.168,0V21.668a2.009,2.009,0,0,1,4.017,0V33.631a3.084,3.084,0,1,0,6.168,0V26.376a.538.538,0,0,0-.538-.538ZM18.177,1.187a.38.38,0,0,1,.536,0l9.423,9.423a.379.379,0,0,1,0,.536l-6.449,6.449-2.516-2.516,1.09-1.09a.538.538,0,0,0-.76-.761l-1.09,1.09L14.6,10.51l1.09-1.09a.538.538,0,0,0-.76-.76l-1.09,1.09-.58-.58L17.55,4.881a.538.538,0,0,0-.76-.761L12.5,8.409l-.773-.773Zm-.41,20.79L7.346,11.556a.38.38,0,0,1,0-.536L10.2,8.166a.379.379,0,0,1,.536,0L21.157,18.587a.38.38,0,0,1,0,.536L18.3,21.977a.379.379,0,0,1-.536,0Zm0,0" transform="translate(0 0)" fill="#303030"/>
    <path id="Path_103" data-name="Path 103" d="M136.385,172.78a.538.538,0,0,0-.761.76l5.69,5.69a.538.538,0,1,0,.76-.761Zm0,0" transform="translate(-125.288 -160.244)" fill="#303030"/>
    <path id="Path_104" data-name="Path 104" d="M417.022,182.277h-.006a.541.541,0,1,0,.006,0Zm0,0" transform="translate(-386.152 -169.205)" fill="#303030"/>
    <path id="Path_105" data-name="Path 105" d="M423.36,202.777a.538.538,0,0,0,.012,1.076h.007a.538.538,0,0,0-.007-1.076h-.007Zm0,0" transform="translate(-392.047 -188.236)" fill="#303030"/>
    <path id="Path_106" data-name="Path 106" d="M376.722,225.883a.541.541,0,1,0,.006,0Zm0,0" transform="translate(-348.747 -209.685)" fill="#303030"/>
  </g>
</svg>
